<svg version="1.0" xmlns="http://www.w3.org/2000/svg" width="3285.33" height="3285.33" viewBox="0 0 2464 2464"><path d="M2180 761.6c-3 .7-5.7 1.3-6 1.3-13.8 3.2-27.7 11.4-39.1 23.1-10.5 10.7-18.5 25.6-21.4 40-.2.8-.4 1.5-.5 1.5-.9 0-1.3 17-1.4 53l-.1 43h4.5c18.1.2 39.6-9.3 54.5-24 5.3-5.2 12-13.8 13.7-17.6.7-1.6 1.6-2.9 2-2.9.5 0 .8-.5.8-1 0-.6.7-2.7 1.6-4.8 1-2 1.8-4.2 2-4.7 4.9-17.7 4.6-14 4.8-62.8l.2-45.8-5.1.2c-2.7.1-7.5.8-10.5 1.5zM2340.4 763.8c-12.3 11.3-23 21-25.7 23.2-1.6 1.4-4.9 4.3-7.2 6.5s-6.4 6-9.1 8.4c-7 6.2-20.1 18.1-24 21.6-1.8 1.6-6.8 6.1-11 10-4.3 3.8-9 8.2-10.6 9.7-1.5 1.6-2.9 2.8-3.2 2.8-.2 0-2 1.5-3.8 3.2-1.9 1.8-7.4 6.9-12.3 11.3-15.2 13.7-18.7 16.9-21.6 19.8-1.6 1.6-2.9 2.7-2.9 2.4 0-.2-2.4 1.9-5.4 4.7-2.9 2.8-8.6 8-12.6 11.6-4 3.6-8.5 7.6-10 9-5.6 5.1-18.3 16.6-20.5 18.5-20.8 18.4-28.3 26.1-33.3 33.5-4.4 6.6-10.2 18.2-9.5 19.2.2.5-.1.8-.6.8-.6 0-1.1 1-1.1 2.3 0 1.3-.3 2.7-.7 3.1-.5.4-.8 1.1-.9 1.4 0 1-1.6 9.4-2.1 11.7-.2 1.1-.5 4.2-.6 7l-.1 5h83.6l2.8-7c5.6-14 17.6-31.5 21.6-31.5.8 0 1.4-.4 1.4-1 0-1 7.1-3.3 11-3.5 7.5-.3 19.2 7.8 27.5 19 1.6 2.2 3.3 4.4 3.7 5 .5.5 1.9 2.6 3.1 4.5 1.3 1.9 4.3 6.4 6.8 9.8 2.4 3.5 4.9 7.1 5.4 8 .6.9 1.4 2.1 1.8 2.6.8 1 4.5 6.4 20.2 29.1 3.8 5.5 8.4 12 10.2 14.5 1.8 2.5 3.6 5.3 3.9 6.2.4 1 1 1.8 1.5 1.8s.9.6.9 1.4c0 .8.4 1.6.8 1.8.8.3 18.4 25.4 19.1 27.3.2.5 1.3 1.8 2.4 2.7 1.1 1 1.7 1.8 1.3 1.8-.4 0 .5 1.7 2.1 3.7 1.6 2.1 5.3 7.4 8.3 11.8 3 4.4 6.1 8.7 6.9 9.5 1.3 1.3 8.6 1.5 53.7 1.5 41.3 0 52-.3 51.7-1.3-.3-.6-.9-1.2-1.4-1.2-.5 0-.9-.4-.9-.9 0-.8-12.4-18.2-16.8-23.6-.4-.6-3.7-5-7.2-10-3.6-4.9-7-9.7-7.7-10.5-.7-.8-4.6-6.2-8.7-12s-8.1-11.2-8.8-12c-.7-.8-3.4-4.4-6-8-2.5-3.6-5.3-7.3-6.1-8.2-.9-.9-1.3-1.9-.9-2.2.3-.3.1-.6-.4-.6s-2-1.8-3.4-4-2.8-4-3.2-4c-.5 0-.8-.6-.8-1.3 0-.7-.9-1.9-2-2.7-1.1-.8-2-1.8-2-2.3 0-.4-.4-1.3-1-2-3.3-4-9-11.7-9-12.2s-2.4-3.6-4.7-6c-.7-.8-1.3-1.6-1.3-1.8 0-.7-12.5-17.7-14.5-19.8-.8-.9-1.5-1.9-1.5-2.2 0-.4-.7-1.5-1.5-2.4-3.8-4.6-11.5-15.5-11.5-16.2 0-.5-.7-1.1-1.5-1.5-.8-.3-1.5-1.2-1.5-2.1 0-.8-.4-1.5-.8-1.5-.8 0-4.2-5.3-4.4-6.7 0-.5-.9-2-2-3.6-1.1-1.5-1.7-2.7-1.4-2.7.3 0-.1-1.2-.9-2.7-.8-1.5-1.2-3-.9-3.5.3-.4 0-.8-.6-.8s-.9-.4-.5-.9c.3-.5.1-1.2-.4-1.6-.6-.3-.8-1.2-.4-2 .3-.8.1-1.5-.3-1.5-1 0-1.2-1.2-1.7-14.5-.2-6.2.2-12.5 1-16.5.8-3.6 1.6-7.3 1.8-8.2.2-.9.9-2.6 1.5-3.7.6-1.2.8-2.1.5-2.1-.4 0 .2-1.2 1.3-2.8 1.1-1.5 2.2-3.7 2.6-4.9 1-3 7-11 13.9-18.3 3.2-3.3 5.8-6 6-6 .1 0 10.8-10.4 23.7-23 12.9-12.7 23.8-23 24.2-23 .4 0 .8-.7.8-1.5s.3-1.5.8-1.5c.4 0 11.1-10.1 23.7-22.5l23-22.5h-105l-4.1 3.8zM235.3 769c-2.1.3-5.4 2.6-9.8 6.7-3.6 3.5-6.8 6.3-7 6.3-.2 0-2.3 1.9-4.8 4.2-2.4 2.4-7.5 7.1-11.3 10.4-3.8 3.4-8.1 7.3-9.5 8.5-1.4 1.3-6.1 5.6-10.5 9.5-4.3 4-9.1 8.3-10.5 9.5-2.2 2-7.2 6.6-22.8 20.8-1.4 1.2-5.7 5.1-9.5 8.5-3.8 3.3-8.1 7.2-9.6 8.6-1.5 1.4-6.7 6.1-11.5 10.5-4.9 4.4-9.9 9-11.2 10.3-1.3 1.3-2.3 2.1-2.3 1.9 0-.2-2.9 2.3-6.5 5.7-3.5 3.3-8.3 7.7-10.5 9.6-2.3 1.9-5.6 4.9-7.3 6.5-1.8 1.7-7.9 7.3-13.7 12.5-5.8 5.1-12.3 11-14.5 13.1-2.2 2-5.3 4.9-7 6.3-5.8 5-19.8 18.1-21.6 20.1-5.9 6.6-7.4 8.6-10.9 14.5-4.2 6.9-9.5 19.6-10.4 24.5-.2 1.6-.7 4.1-1.1 5.5-.3 1.4-.8 5.5-1.1 9.2-.6 6.7-.6 6.8 1.7 6.9 16 .5 81.3-.1 81.9-.7.4-.5 1.3-2.7 2-4.9 1.3-4 6.8-15.6 7.9-16.5.8-.7 2.9-4.1 3.8-6 1.2-2.9 10.1-10.7 14.3-12.7 8-3.7 18.1-1.3 26.6 6.5 5.6 5.2 23.4 28.9 23.4 31.2 0 .6.4 1 .9 1s1.2.8 1.5 1.7c.3 1 1.6 2.9 2.9 4.3 1.3 1.4 2.6 3.2 3 4 .4.8 3.8 6 7.7 11.5 3.9 5.5 10.2 14.7 14.2 20.5 3.9 5.8 7.4 10.7 7.7 11 .3.3 3.9 5.4 8 11.5 4.1 6 7.9 11.3 8.5 11.7.6.4.7.8.3.8-.4 0 .4 1.2 1.8 2.7 1.4 1.5 2.5 3.3 2.5 3.9 0 .6.9 1.9 2 2.9s2 2.4 2 3.1c0 .7.4 1.4.8 1.6.5.2 2.8 3.2 5.2 6.8 2.4 3.6 4.7 6.6 5.2 6.8.4.2.8.9.8 1.5 0 .7 1.1 2.4 2.4 3.9 1.4 1.4 2.2 2.9 1.9 3.2-.4.3-.2.6.4.6.5 0 1.8 1.6 2.9 3.5 1.6 3.1 2.3 3.5 5.9 3.5 17.8.3 100.8.1 101-.2.2-.2-2-3.6-4.8-7.5-2.9-3.9-5.9-8.1-6.7-9.3-.8-1.3-2-2.8-2.5-3.4-.6-.6-2.6-3.3-4.5-6.1-4.5-6.4-4.5-6.4-7.3-10-1.3-1.7-5.4-7.3-9.2-12.5-3.8-5.2-7.3-10-7.7-10.5-.7-.9-10.3-13.9-15.6-21.4-.9-1.3-2.2-2.9-2.9-3.6-.7-.7-.9-1.5-.6-1.9.4-.3.1-.6-.5-.6-.5 0-2.1-1.7-3.3-3.8-1.3-2-2.9-4.3-3.7-5.1-.7-.8-2.1-2.6-3-4-.9-1.4-2.2-3-2.9-3.4-.7-.4-1.3-1.2-1.3-1.7s-2.9-4.9-6.6-9.7c-3.6-4.8-7.3-9.9-8.2-11.2-.9-1.3-2.8-3.6-4-5.2-1.3-1.6-2.1-2.9-1.8-2.9.4 0-.2-1-1.4-2.3-3.9-4.3-7-8.5-7-9.5 0-.6-.4-1.2-.9-1.4-1.2-.4-23.5-31.2-23.7-32.6 0-.4-1.1-3-2.3-5.7-1.3-2.8-2.4-5.7-2.6-6.5-.2-.8-.4-1.5-.5-1.5-.2 0-.6-1.6-2-8.5-1.1-5.5-1.4-19.4-.5-24 1.4-7.2 1.8-8.8 2.8-12 .6-1.9 1.5-3.9 1.9-4.5.4-.5.8-1.6.8-2.5 0-.8 2.3-5.1 5.1-9.5 5.3-8.4 11.7-15 76.9-78.5 31.8-31 36-35.2 36-36 0-.3-22.2-.5-49.3-.5-27 0-50.6.2-52.4.5zM373.8 772.5c-.3 2.2-.1 4.2.4 4.3.4.2.5.8.2 1.4-1 1.6-1 14.8-.1 14.8.5 0 .5.5.1 1.1-.9 1.6-1 14.9-.1 14.9.5 0 .5.5.1 1.1-1 1.6-1.1 14.9-.1 14.9.4 0 .4.8 0 1.7-.9 1.9-.9 2.3 0 14.3 1 12.8 8.7 32.8 16.1 41.9 7.8 9.6 23.9 23.1 28.2 23.7.9.1 2.3.9 3.2 1.7 3.3 2.9 21.6 7.6 31.9 8.1l4.1.3-.1-41.4c-.1-22.7.2-41.3.6-41.3.5 0 .5-.5.2-1-.8-1.2-5.1-1.1 49.5-1.1 49 0 56.5.3 65 2.7 3 .8 6.4 1.7 7.4 1.9 1.1.3 2.2.8 2.5 1.2.3.5 1.2.9 1.9 1.1 6 1.2 18.4 15.3 19.5 22 .1.9.5 2.1.9 2.7 1.8 2.9 3.1 28.2 1.6 29.1-.5.3-.6.9-.3 1.4.9 1.5-1.6 11.3-4.3 17-3.5 7.3-10 14-16.9 17.6-3.1 1.5-6.3 2.9-6.9 3-.7.1-2.8.7-4.6 1.3-1.8.6-4.6 1.3-6.3 1.7-1.6.4-32.9.8-69.5 1-36.6.1-69.2.5-72.6.8-7.4.7-15.7 3.5-23.2 7.8-6 3.4-19.5 16.4-18.6 17.9.3.5.2.9-.3.9-.7 0-6.8 11.9-6.6 13 0 .3-.3 1.4-.7 2.6-1.3 3.3-2.2 12.2-1.5 14.4.5 1.5 1 1.8 2.3 1.1 1-.6 2.3-.6 3.4 0 1 .5 1.8.6 1.8.2 0-.8 159.7-.7 171.1.1 17.4 1.3 29.3 6.9 38.8 18.2 4.3 5.1 11.5 22.9 12.7 31.2.3 2 .7 5 .9 6.7 1.1 6.8 1.7 12.3 1.8 16.7.1 2.7.4 4.8.7 4.8.3 0 .6 1.2.6 2.7.2 4.5 1.4 19.4 2 24.3.9 7.6 5.6 18.1 10.1 22.8.7.7 1.6 1.9 2 2.6 1.4 2.4 12.4 9.5 17.1 11 7.6 2.5 9.6 2.6 33.2 2.7 26.8 0 30.9-.1 29.3-.8-.7-.2-1.3-1.1-1.3-1.9 0-.8-.3-1.4-.7-1.4-.7 0-4.6-8.2-4.8-10-.1-.3-.6-2.1-1.3-4-2.5-7.7-4.8-22.8-5.7-39-.2-3-.4-5.5-.5-5.5-.1 0-.3-4.3-.5-9.5-.3-9.8-1.2-23-1.9-26.5-.2-1.1-.7-4.3-1-7-2-14.1-8.1-31.3-14.9-41.3-2.8-4.2-11.2-13.1-15.3-16.2-3-2.4-13.5-7.6-17.9-9-2.2-.7-4.4-1.5-4.9-1.8-.4-.2 3.8-2.7 9.4-5.4 5.6-2.8 11-5.6 11.9-6.3 10.2-8.2 14.5-12.1 17.7-16.2 2.2-2.6 4.1-5 4.4-5.3 1.1-1.1 8.4-15 8.7-16.5.1-.6 1.1-3.5 2.2-6.5 1-3 2.2-6.9 2.5-8.5.2-1.7.7-4.1 1-5.5 1.2-4.9 2-15.7 1.9-24.5-.2-13.5-1.4-20.9-5.2-32.1-5.5-16.1-16.4-32.1-29-42.4-8.8-7.2-25.1-17.1-25.1-15.3 0 .5-.4.3-.8-.3-1.6-2.4-22-8.1-35.7-10-2.7-.4-53.7-.7-113.2-.8l-108.1-.1-.4 4zM767.9 770.5c-.3 7.8 0 74 .4 78 2.9 28.7 21 53.9 48 66.9 3.2 1.5 6.6 2.9 7.5 3.1.9.2 1.9.4 2.2.5.3.1.8.2 1.3.1.4 0 .7.4.7 1.1 0 .6.3.9.6.6.3-.3 2.9 0 5.7.6 2.9.7 8 1.3 11.3 1.5l6.1.2-.1-45.5c-.1-44.9-.1-45.6 1.9-45.7H889c33.3 0 44.8.4 51.8 1.6 2 .3 5.1.8 6.9 1 4.3.5 11.6 3 18.2 6.2 9 4.4 18.5 15.3 21.5 24.6.3.9.6 1.9.7 2.2 2.8 8.5 3.3 27.7 1 36.5-3.1 11.5-9.4 20.7-18.5 26.9-4.5 3.1-16.4 8.1-20.5 8.6-1.4.2-2.6.4-2.6.5 0 .4-4.7 1-9.7 1.2-3.2.2-5.8.5-5.8.8 0 .3-24 .5-53.3.5-29.2-.1-53.6.1-54.1.4-.5.2-2.6.6-4.6.7-7.6.6-21.9 7.2-29.9 13.9-8.2 6.9-17.8 21.4-19.6 29.5-.2.8-.8 3.7-1.5 6.4-.6 2.7-.8 5.1-.5 5.4.2.3.1 1-.4 1.6-.5.6-.5 2-.1 3.1.8 2.1 1.1 2.1 96.6 1.9 52.8-.2 97-.5 98.4-.7 1.4-.3 4.7-.8 7.5-1.2 7.8-1.1 11.7-1.9 13.5-2.5.3-.1 1-.3 1.5-.4 2.8-.4 13.4-4 18.3-6.2 9-4 10.6-4.8 11.4-5.9.4-.5.8-.6.8-.2 0 1.2 16.9-10.7 21.7-15.3 3.6-3.4 6.6-6.8 15.3-17.7 4.3-5.3 13.5-27 15.4-36.3.3-1.4.7-3.6 1-5 1.4-6.1 2.5-16.9 2.6-24.5.1-6.1-.8-19.8-1.4-22.5-.4-2.2-1.6-8.2-2-10.5-.1-1.1-.5-2.7-.8-3.5-.3-.8-1.5-4.7-2.7-8.5-3.2-9.7-9.4-21.9-14.9-29.4-6.2-8.4-24.9-25.1-28-25.1-.6 0-1.2-.4-1.4-.9-.3-1-18.1-10.1-19.7-10.1-.6 0-1.9-.4-2.9-.9-2.3-1.3-5.3-2.3-7.7-2.8-1.1-.2-3.1-.7-4.5-1.2s-4.3-1.3-6.5-1.7c-2.2-.4-4.7-.9-5.5-1-2.1-.5-9.3-1.4-16.5-2.1-3.3-.3-47.3-.6-97.8-.7-91-.1-91.7-.1-91.8 1.9zM1239.4 769.2c-.3.4-1.1.5-1.8.2-2.9-1.1-25.2 6.6-27.6 9.5-.3.3-2.1 1.8-4.1 3.3-3.7 2.7-8 6.9-10.9 10.4-2.4 3-7.5 11.8-7.2 12.6.1.5-.2.8-.7.8-.5 0-1.2 1.1-1.5 2.5-.3 1.3-1.1 3.7-1.8 5.2-.6 1.5-1.2 3-1.3 3.3-.3.8-1.6 4.1-4.6 11.2-1.5 3.6-2.5 6.9-2.2 7.2.4.3.1.6-.6.6-.6 0-1.1.6-1 1.2.2.7-.5 3-1.3 5-.9 2-7.1 17.8-13.8 35-6.7 17.2-12.8 32.6-13.6 34.2-.8 1.6-1.4 3.4-1.4 4-.1.6-.9 2.9-2 5.1-1.1 2.2-1.9 4.6-2 5.3 0 .7-.4 2-.9 3-1.4 2.8-2.9 6.3-5.9 14.2-1.6 4.1-3.3 8.4-3.7 9.5-.5 1.1-.9 2.2-1 2.5-.2.6-2.3 5.9-3.2 8-.3.8-.8 2.4-1 3.4-.2 1.1-.8 2.5-1.3 3.1-.5.7-.7 1.5-.3 1.8.3.4.1.7-.5.7-.7 0-1.1 1.1-1 2.4.1 1.4.5 2.3.8 2.1.3-.2 3.8-.6 7.7-.9 3.9-.3 9.5-1.1 12.5-1.7 5.5-1.1 23.9-6.9 24.8-7.9.3-.3 4-2.3 8.3-4.4 4.2-2.2 8.6-4.8 9.7-5.8 1-1 2.2-1.8 2.4-1.8 2.1 0 25.6-23.5 25.6-25.6 0-.3.6-1.2 1.3-1.9 2.9-3.3 3.6-4.3 3.1-4.8-.2-.2.2-1 1.1-1.7.8-.7 1.5-1.8 1.5-2.5 0-.8.3-1.5.8-1.7.7-.3 5.8-11.2 8-17.3.6-1.7 1.7-4.4 2.3-6 .7-1.7 1.3-3.2 1.4-3.5.7-3.1 3-8.8 3.9-9.9.6-.8.9-1.5.6-1.5-.4-.1 1.8-6.9 4-12.1.4-1.1 1.1-2.8 1.4-3.8.7-2.3 2.6-1.3 2.6 1.4 0 1 .4 1.9.8 1.9.5 0 .9.6.9 1.2 0 1.2 10.3 30.4 19.9 56.8 1.9 5.2 3.6 9.9 3.7 10.5.1.5.8 2.3 1.4 4 .7 1.6 3.9 10.9 7.3 20.5s7.7 21.7 9.6 26.9c1.9 5.1 3.2 9.6 2.9 9.9-.3.3-28.5.6-62.8.7-34.2.1-64 .5-66.2.9-5.2.9-18.4 4.6-20.4 5.6-.9.4-4.6 2.3-8.3 4.1-3.8 1.8-6.8 3.7-6.8 4.2 0 .4-.4.5-1 .2-.5-.3-1-.2-1 .4 0 .5-.9 1.2-1.9 1.6-2.8.9-18.3 16.3-22.2 22-1.9 2.7-3.6 5.2-3.9 5.5-1.1 1-7 13.2-7 14.5 0 1 19.5 1.3 103.3 1.3 56.7.1 107.4.1 112.5.2 5 0 9.1.3 9 .7-.3 1.5 7.2 17.4 11.4 24.3 5.5 8.9 15 19.9 25.1 28.7 10.5 9.4 32.7 21.1 45 23.9.4.1.8.2 1 .4.1.1 1 .3 1.9.5.9.2 3.9.8 6.8 1.4 2.8.6 8.8 1.4 13.3 1.7 4.5.3 8.7.7 9.2.8 1.5.2.7-3-3.6-14.1-2.3-5.6-4.2-10.9-4.3-11.7-.1-.9-.8-2.2-1.4-2.8-.7-.7-1.2-2-1.2-2.9 0-.9-1.1-4.1-2.3-7-3.4-7.9-4-9.2-4.3-11.2-.2-1-1.1-2.9-2-4.2-.8-1.3-1.5-2.5-1.4-2.7.2-.4-.7-3-5.2-14.8-5.4-14.1-5.4-14.1-6.6-17-.6-1.4-3-7.5-5.3-13.5-2.2-6.1-4.6-12.1-5.2-13.5-.6-1.4-1.1-2.7-1.2-3-.1-.3-.5-1.4-1-2.5-.4-1.1-5.2-13.7-10.7-28-13.8-36.1-14.8-38.6-16.3-42-.7-1.7-2.3-5.7-3.5-9-2.6-7.2-3.4-9.2-4.8-12.5-.5-1.4-2.4-6.3-4.2-11-1.7-4.7-3.6-9.3-4.1-10.2-.5-1-.9-2.2-.9-2.7s-.8-2.6-1.7-4.7c-.9-2.2-1.7-4.1-1.8-4.4-.1-.3-.5-1.4-1-2.5-.8-2-3-7.7-12.5-32.5-2.8-7.4-5.5-14.4-6-15.5-.5-1.1-3.2-8.1-6-15.5s-5.5-14.4-5.9-15.5c-.7-1.8-3.2-6.9-6.8-13.7-1.8-3.6-14.5-16.8-16.1-16.8-.6 0-1.2-.5-1.2-1 0-.6-.7-1-1.5-1s-1.5-.5-1.5-1.1c0-.5-.4-.8-.9-.5-.5.3-1.4-.1-2.1-.9-.7-.8-1.6-1.5-2-1.5-.4 0-2.5-.7-4.6-1.6-2.2-.9-3.9-1.6-3.9-1.4 0 .1-1.3-.3-2.8-.9-4.9-1.9-20.5-3.3-21.3-1.9zM1534 768.3c-.3.3-3.2.7-6.5 1-9.6.9-20.4 3.7-23.3 6-.7.5-1.5.7-1.9.4-.3-.4-1.8.2-3.3 1.3-1.6 1.1-3.1 2-3.4 2-.7 0-7.8 4.5-11 7-5.8 4.4-13.2 12.3-17.5 18.5-5.2 7.5-9.6 15.5-8.5 15.5.4 0-.1.9-1.1 2s-1.5 2-1 2c.4 0 .2.7-.5 1.5s-1 1.5-.7 1.5c.4 0 0 1.8-.8 4s-1.4 4.3-1.4 4.5c0 .3-.3 3.6-.7 7.3-.4 3.7-.8 51.6-.8 106.5-.1 75.3.2 100.1 1.1 100.8.6.6 2.9.8 5 .5 2.1-.3 5.4-.8 7.3-1.1 3.5-.4 5.1-.7 10.5-2 5-1.2 22.7-10.2 27-13.7 9.2-7.6 21.5-21.6 21.5-24.6 0-.5.4-1.2.8-1.4 1.9-.8 8.3-18.3 9.9-26.9.8-4.6 1.1-208.9.3-211.2-.3-1-.8-1.6-1-1.4zM1744.7 768.8c-1.6.3-1.7 5.2-1.7 64.2v63.9l16.8-.3c15.8-.4 20.7-.8 24.2-2.3.8-.3 2.3-.8 3.3-.9 5.1-1.1 20.2-11 23.5-15.5.7-1 1.8-2.4 2.5-3.1 2.1-2.3 7.9-10.8 8.1-12.1.2-.7.8-2.4 1.4-3.8 2.3-5.6 3.8-12.8 4.1-19.1l.1-2.7 69.8-.1c38.3 0 70.8-.2 72.2-.4 5.8-.9 8.9-1.7 13.1-3.1 4.7-1.7 15.2-6.9 17.7-8.8 3.2-2.6 15.9-15.3 16.6-16.7 1-2.2 3-5.6 4.2-7.1.9-1.2 5.7-13.2 5.9-14.9.1-.3.4-2.3.8-4.5 1.5-8.2 1.6-12.5.4-12.6-3.5-.3-281.6-.3-283-.1zM64.8 770.9c-3.7.9-7 1.9-7.4 2.3-.4.5-1.4.8-2.3.8-2 .1-16.3 7.2-18.1 9-.3.3-2.3 1.8-4.5 3.5-13.8 10.1-25.9 28.6-30.1 46-.2.5-.6 2.1-1 3.5S.5 859.7.3 885.7l-.4 47.1 5.3-.4c12.2-.9 19.1-2.7 29.3-7.4 20.5-9.4 35.7-25.3 43.9-46 1-2.5 1.9-5.2 2.1-6.1.2-.9.9-3.4 1.6-5.5.9-2.8 1.3-16.9 1.6-51.2l.4-47.3-6.3.2c-3.5.2-9.3 1-13 1.8zM1803.7 915.6c-.3.3-2.5.8-4.9 1-6.1.7-7.2.9-8.3 1.5-.5.4-2.3.9-3.9 1.3-3.3.8-13.6 5.8-16.2 7.8-.9.7-3.9 3.4-6.7 6-2.7 2.7-5.3 4.8-5.6 4.8-.6.1-7.3 10.5-8 12.5-.1.5-1.1 2.6-2.1 4.5-1.5 3.1-2.3 5.5-3.7 12-1 4.4-1.4 12-.6 12.1 4.8.5 266.8.2 267.5-.2.6-.4.8-1.4.5-2.3-.4-.9-.3-1.6.1-1.6.9 0 .9-7.7 0-8.5-.3-.4-.3-1.9.2-3.4.4-1.5.3-3.5-.2-4.4-.5-1.1-.5-1.7 0-1.7 1 0 .9-5.6-.1-6.6-.3-.3-.1-1.9.3-3.5.5-1.6.5-4.2 0-5.8-.4-1.6-.6-3.2-.3-3.4.8-.8.9-10.8.2-11.3-.4-.2-.4-1.8.1-3.5 1.1-3.6-.4-7.3-2.5-6.5-.8.3-2.8.1-4.4-.4-1.7-.5-3.1-.6-3.1-.2 0 .4-9 .7-20 .7s-20-.3-20-.7c0-.4-1-.4-2.2 0-1.3.4-3.6.6-5.3.5-3.6-.4-1.2-.4-22.8-.1-9.7.2-17.7 0-17.7-.4s-1-.4-2.2 0c-1.3.4-3.6.6-5.3.5-3.8-.4-3.2-.4-14.8-.1-5.3.2-9.7 0-9.7-.4s-1-.4-2.2 0c-1.3.4-3.6.6-5.3.5-3.8-.4-3.2-.4-14.8-.1-5.3.2-9.7 0-9.7-.4s-.7-.5-1.6-.1c-2.4.9-8.6 1-11.6.2-1.6-.4-2.8-.4-2.8 0 0 .7-17.6.4-19.7-.4-.7-.2-1.3-.1-1.3.4 0 .9-6.2.7-7.7-.2-.6-.4-1.3-.4-1.6-.1zM1743.4 998.9c-.2.2-.4 31.6-.4 69.8v69.3h4.3c36.9.5 283.9 0 284.8-.5.7-.5.9-2.4.5-5.4-.5-4.4-.7-5.6-2.2-12.6-.8-3.8-5.3-13.4-7.2-15.8-.8-.9-1.2-1.7-.8-1.7 2.4 0-14.7-17.8-19.4-20.2-1.4-.7-2.7-1.6-3-1.9-.9-1.2-11.7-5.9-16.6-7.4-8.5-2.4-13.5-2.6-85.5-2.6h-70.6l-.6-5.7c-.7-6.2-1.4-10.6-2.4-13.7-.4-1.1-.8-2.5-.9-3-.1-.6-1.2-3.3-2.5-6-1.2-2.8-2.3-5.2-2.3-5.5-.1-.3-1.7-2.8-3.5-5.5-4.7-6.9-14.6-16.6-21.2-20.7-6.2-3.9-16.9-8.5-21.4-9.2-1.6-.2-4.2-.7-5.7-1.1-3-.8-22.7-1.3-23.4-.6z"/><path d="M373.9 1014.4c0 .6-.1 3.2-.2 5.8-.2 2.7.1 4.8.6 4.8.4 0 .5.5.1 1.1-.9 1.5-.8 19.5.2 21 .4.7.3 1-.2.6-.5-.3-.9 5-.9 12.4 0 7.1.4 12.9.8 12.9.5 0 .5.5.1 1.1-.9 1.5-.8 19.5.2 21 .4.7.3 1-.2.6-.5-.3-.9 5-.9 12.4 0 7.1.4 12.9.8 12.9.5 0 .5.5.1 1.1-.4.6-.7 4.4-.7 8.3v7.1l6 .1c8.7.1 22.3-3.7 33-9.1 5.1-2.6 9.3-5.1 9.3-5.5 0-.5.8-1.1 1.8-1.4 2.4-.8 12.5-10.8 17.3-17.1 4-5.3 11.3-18.5 10.3-18.5-.4 0-.2-.6.4-1.3 1.3-1.7 4.4-12.3 5.1-17.7.3-2.5.6-15.5.6-29v-24.5l-41.7-.1c-30.2-.1-41.8.2-41.9 1zM767.9 1026.7c-.1 2.3-.1 108.3 0 110.2.1 1.1 1.6 1.2 7.7.8 32.4-2.7 60.5-24.7 71.4-56 3.9-11.2 4.4-15.2 4.5-37.7v-18.5l-41.7-.3c-39.3-.2-41.8-.1-41.9 1.5zM2115 1030l-3.5.5v49.2c0 32.3.3 49.3 1 49.4 4.3.5 12.8-.5 18.3-2 1.8-.5 3.3-.9 3.5-.9.1.1 2-.5 4.2-1.2 11.2-3.6 26.5-13.5 34.1-22.1 2.2-2.4 4.7-5.1 5.7-6.1.9-1 1.5-1.8 1.1-1.8-.3 0 .6-1.5 2-3.3 1.5-1.9 2.6-3.9 2.6-4.5 0-.7.3-1.2.8-1.2 1.4 0 6.5-12.9 8.6-22.1 2.2-9.6 2.9-32.8 1-33.6-1.7-.6-75-.9-79.4-.3zM.4 1038.9c-.2.2-.4 22.7-.4 49.9v49.5l7.6-.6c11.1-.9 20.2-3.5 30.7-8.8 3.4-1.8 7.2-3.9 8.3-4.8 1.2-.9 3.2-2.3 4.4-3.1 7-4.8 17.2-16.7 22.4-26.1 7.4-13.4 10.1-24.9 10.5-43.4l.2-13H42.5c-22.9 0-41.8.2-42.1.4zM1457.5 1069.9c-.2.5-1.6.6-3 .3-2.6-.4-2.6-.4-2.4 4.9.5 11.4 5.5 24.7 13.2 35.4 3.5 4.9 13.2 14.5 14.7 14.5.4 0 1.3.7 2 1.5 1.7 2 14.4 8 19.5 9.1 1.1.3 4.3.9 7 1.5 3.8.8 160.7 1.5 209.3.9h4.3l-.7-6.8c-.3-3.7-1-7.5-1.5-8.5-.6-.9-.7-1.7-.4-1.7.3 0-.1-1.5-.9-3.4s-1.2-3.7-.8-4c.3-.3.1-.6-.5-.6s-1.4-1.2-1.8-2.7c-1.4-5.8-11.9-19.6-19.2-25.3-5.8-4.5-17.3-10.9-20.6-11.4-.7-.1-1.8-.5-2.4-.9-.7-.5-1.3-.6-1.3-.2 0 .3-.8.1-1.7-.4-1-.5-4.5-1.2-7.8-1.5-7.3-.8-113.5-1-114.2-.2-.3.3-1.4.1-2.4-.5-1.2-.6-1.9-.6-1.9 0s-1.1.6-3 .1c-1.6-.5-3.2-.5-3.5 0-.3.5-1.8.5-3.4 0-1.6-.4-3.2-.6-3.5-.2-.8.7-6.9.7-8.9-.1-.9-.3-1.9-.2-2.2.3-.4.7-1.3.7-2.4 0-1-.5-2.1-.6-2.5-.3-.3.4-2.5.6-4.9.5-5.6-.2-22-.3-22.9-.2-2.4.4-7.7.2-9.1-.3-1-.4-1.7-.3-1.7.1 0 .9-9.5.7-10.9-.3-.6-.3-1.1-.2-1.1.4 0 .6-1.1.6-3 .1-1.6-.5-3.2-.5-3.5-.1zM1078.6 1082.9c-1.7 4.2-3.6 9.2-4.5 11.1-.8 1.9-1.6 3.9-1.7 4.5-1 3.5-7 18.1-7.7 18.6-.5.3-.8 1-.8 1.5.1 1.2-.8 4.3-1.9 6.9-4.3 9.8-4.8 11.5-3.8 12.1 2.1 1.3 26.4.5 34.7-1.1 8.3-1.6 20.6-6.1 28-10.2 6.5-3.6 17.9-12.5 23-17.8 6.6-7.1 16.7-22.4 16.3-24.8-.1-.4.2-.7.7-.7.5 0 1.2-1.1 1.5-2.4.3-1.3.8-3.1 1.2-3.9.4-1.3-4.9-1.5-40.8-1.5h-41.3l-2.9 7.7zM1171.7 1111.5c-.9.7-1.7 1.5-1.7 1.9 0 1.4-8.7 12.3-14.2 17.6-7.4 7.2-13.7 11.6-23.4 16.4-14 7-23.6 9.6-37.1 10-1.7 0-2.9.4-2.7.8.3.5.1.8-.4.8-1.5 0-4.2 7.6-4.7 12.9-.6 6.4 2.1 14.2 6.4 18.8 3.8 4 4.4 4.4 13.2 8.9 3 1.5 6.2 3.4 7.2 4.2.9.8 1.7 1.2 1.7.9 0-.3 3.3 1.2 7.3 3.3 3.9 2.1 10.4 5.5 14.2 7.5 3.9 2.1 11.1 5.9 16 8.5 5 2.6 14 7.3 20 10.5 6.1 3.2 14.7 7.8 19.3 10.2 4.6 2.4 9.1 4.7 10 5.2.9.4 3.1 1.6 4.7 2.5 1.7.9 4.7 2.4 6.8 3.4 2 .9 3.7 2 3.7 2.4 0 .5.8.8 1.9.8 1 0 2.4.7 3.1 1.5.7.8 1.6 1.3 2 1 .5-.3 1.1-.1 1.5.4.6 1.1 1.1 1.1 10.2 1.2 12.3.2 22.9-8.2 26.1-20.6.3-1.1.6-21.8.6-46.1.1-35.7-.2-44.4-1.3-45.7-1.2-1.6-4.7-3.4-16.6-8.7-2.7-1.3-8.8-4.1-13.5-6.3-4.7-2.2-8.7-4.1-9-4.2-1.3-.4-6.5-2.7-16.5-7.5-30.4-14.4-31.6-14.9-34.8-12.5zM1287.8 1136.1c-4 2-8.1 6.8-9.3 10.9-1.3 4.1-.9 270.8.4 275.5 1.4 5.1 6.2 11 10.9 13.2 2.3 1.1 6 1.8 9.7 1.8 6 0 8-.7 27-9 2.8-1.2 6.1-2.6 7.5-3 1.4-.4 4.8-1.8 7.5-3 2.8-1.3 10.1-4.6 16.4-7.4 9.4-4.2 28.1-15.4 32.5-19.5.6-.6 4.4-3.7 8.3-6.9 4-3.2 7.8-6.8 8.5-8 1.3-2.4 1.4-2.9 2.2-21.2.3-6.6.6-12 .7-12 .6 0 .3-105.7-.3-106.1-.4-.3-.4-1.3.1-2.3.6-1 .6-2.3.1-3.1-.5-.9-.4-2 .2-2.8.7-.8.8-1.6.2-2-.5-.4-1-5-1.1-10.2-.4-20.8-.9-25.9-2.8-28-1-1.1-2.4-2-3.1-2-.7 0-1.4-.4-1.6-.9-.3-.9-9.4-6.3-14-8.3-1.6-.7-2.8-1.6-2.8-2 0-.4-.4-.8-1-.8-.5 0-3.1-1.3-5.7-2.8-2.6-1.6-7.7-4.4-11.3-6.4-10.1-5.5-17.2-9.4-21-11.4-1.9-1.1-3.7-2.1-4-2.4-.3-.3-3.4-2-7-3.8-3.6-1.9-12.8-6.7-20.5-10.7-15.5-8-19.9-8.9-26.7-5.4zM1065 1210.9c-3 1.4-5.6 2.9-5.8 3.3-.2.5-.8.8-1.3.8-.9 0-4.6 1.8-24.9 12-6.9 3.5-12.7 6.4-13 6.5-.3 0-2.5 1.2-5 2.5-14.8 7.7-59 29.6-59 29.2 0-.3-.8.2-1.7 1-1 .8-8.5 4.8-16.8 8.9-8.2 4-15.2 7.7-15.3 8.1-.2.5-.8.5-1.4.2-.6-.4-1.3-.2-1.7.4-.3.6-3.3 2.3-6.6 3.9s-28 13.9-55 27.5c-26.9 13.5-49.4 24.6-49.9 24.6s-1.2.4-1.5.9c-.3.4-15.4 8.2-33.6 17.2-18.1 9.1-33.1 16.8-33.3 17.3-.2.4-.9.8-1.5.8-1.5 0-72 35.2-72.8 36.3-.3.5-1.2.9-2 1.1-1.5.3-39 18.7-39.9 19.6-.8.9-20 10-20.9 10-.5 0-1.1.4-1.3.8-.3.9-28.8 15.1-30.2 15-.5 0-1.2.4-1.5.9-.3.4-17.3 9.1-37.8 19.3-20.4 10.2-37.2 18.7-37.2 19-.1.3 5.6 4.1 12.4 8.5 6.9 4.4 13.1 8.4 13.8 9 2.6 2.1 10.6 7.5 11.1 7.5.8 0 10.1 6.4 10.4 7.2.2.5.8.8 1.3.8.4 0 9 5.4 19 12s18.6 12 19.1 12c.4 0 .8.4.8 1 0 .5.5 1 1.1 1 .6 0 2.4.9 4 2 2.3 1.7 16.7 8.2 17.7 8 .1 0 .3 0 .5.1.1 0 1.1.2 2.2.4s3.4.6 5 1c6.3 1.4 22 .8 28.5-1 .8-.2 2.6-.6 4-.9 4-.7 8.4-2.7 49.7-23.2 21.6-10.7 39.6-19.4 39.9-19.4.4.1 1-.2 1.3-.7.5-.7 25.6-13.5 27.1-13.8 1.5-.4 24.6-12.1 25.1-12.8.3-.5 1.2-1 2-1.1 2.2-.4 13.3-5.9 14-6.9.3-.5.9-.8 1.3-.8 1.1.2 26-12.3 26.8-13.4.4-.5.8-.7.8-.3 0 .3 9.2-4 20.5-9.7 11.3-5.6 20.5-10 20.5-9.6 0 .3.4.1.8-.4.8-1.3 28.4-15 29.5-14.7.4.1.7-.2.7-.6 0-.5 1.8-1.5 4-2.2 2.2-.7 4.5-1.9 5.1-2.7.6-.7 1.5-1.3 2-1.3s30.9-14.9 67.6-33.2c36.8-18.3 67-33.3 67.3-33.3.3-.1 31.8-15.7 70.1-34.8 38.3-19.1 70.1-34.7 70.7-34.7.7 0 1.2-.5 1.2-1.2 0-.6.3-.8.6-.5.4.4 1.9-.2 3.4-1.3 1.6-1.1 3.2-2 3.7-2 2 0 5.1-4.5 4.7-6.9-.6-3.4-2.9-5.8-8.4-8.5-2.5-1.3-7-3.7-10-5.3-3-1.7-8.6-4.7-12.5-6.8-3.8-2.1-9.5-5.2-12.5-6.8-11.2-6.2-27.8-15.1-38-20.5-5.8-3-10.8-6-11.2-6.6-.4-.6-.8-.7-.8-.2 0 .5-.6.4-1.2-.2-.7-.6-4.4-2.7-8.3-4.7-3.8-2.1-9-4.9-11.5-6.2-2.5-1.4-8.1-4.4-12.5-6.8l-8-4.3-5.5 2.7zM1434.8 1222.7c-.2.5-.3 26.9-.3 58.8.2 51.2.4 58.7 1.9 63.7.9 3.2 1.7 6.1 1.8 6.5 0 .5 1.2 2.5 2.4 4.5 1.3 2.1 2.4 4 2.4 4.3 0 1.4 7.7 9.4 12.5 13 4.4 3.3 30.7 17 99 51.4 7.2 3.6 13.2 6.9 13.3 7.3.2.5.9.8 1.6.8.6 0 3.8 1.4 7.1 3.1 3.3 1.7 11.9 6.1 19 9.7 7.2 3.6 13.2 7 13.3 7.4.2.4 1 .8 1.7.8 1.2 0 7.5 3 11.5 5.5.8.5 2.1 1 2.9 1.2.8.1 1.7.5 2 1 .3.4 15.5 8.2 33.6 17.3 18.2 9.1 33.2 16.7 33.5 17 .3.3 9 4.7 19.3 9.9s19 9.8 19.3 10.3c.3.4 1.4.8 2.4.8s2 .3 2.2.7c.2.5 10.7 6 23.3 12.3 12.7 6.3 23.2 11.8 23.3 12.2.2.5 1.2.8 2.2.8 1 0 2 .3 2.2.7.2.5 7.1 4.2 15.3 8.3 8.3 4 15.2 7.7 15.5 8 .7.8 12.5 5.7 17 7.1 5.9 1.8 10.1 2.3 19 2.2 12.8-.1 20.4-1.9 30.5-7.1 9.8-5.1 11.1-6.3 57-53.8 9.4-9.6 17.1-17.9 17.2-18.2.2-.4-3.9-2.7-9-5.2-5-2.5-9.4-4.7-9.7-5-.3-.3-12.4-6.6-27-13.9-14.6-7.4-26.7-13.7-27-14-.3-.3-1.4-.8-2.5-.9-1.1-.2-2.2-.7-2.5-1.1-.3-.3-7.9-4.4-17-9s-18-9.2-19.7-10.3c-1.8-1.1-3.3-1.6-3.3-1.3 0 .4-.6.3-1.3-.3-1.4-1.2-12.5-6.9-51.7-26.8-12.9-6.5-23.7-12.1-24-12.4-1-1-15.6-8-16.7-8-.6 0-1.3-.3-1.5-.8-.1-.4-10.2-5.7-22.3-11.7-12.1-6.1-22.2-11.2-22.5-11.5-.3-.3-8.4-4.5-18-9.3-9.6-4.9-19.6-10-22.2-11.3-2.7-1.3-5.1-2.4-5.4-2.3-.4 0-1-.3-1.3-.8-.3-.4-2.8-1.9-5.6-3.2-2.7-1.4-5.3-2.9-5.7-3.5-.4-.6-.8-.8-.8-.4 0 .3-4.6-1.7-10.2-4.6-64.1-32.9-88.1-45-88.7-44.7-.2.2-.7-.2-1-.7-.3-.5-7.6-4.4-16.1-8.7-8.5-4.2-15.9-8.1-16.4-8.6-.6-.5-1.8-.9-2.8-.9-1 0-1.8-.3-1.8-.8 0-.4-2.5-1.8-5.5-3.2-3-1.4-5.5-2.9-5.5-3.4s-.3-.7-.6-.4c-.5.6-16.6-7.3-19.1-9.4-.7-.6-1.3-.7-1.3-.3 0 .4-.6.3-1.2-.3-1.2-.9-36.7-19.2-37.4-19.2-.1 0-.4.3-.6.7zM.5 1226c-.1.3.9 3 2.2 6 1.4 3 2.9 6.5 3.4 7.7.5 1.3 1.3 3.3 1.9 4.5 4.8 11.4 10 24.4 10 25.1-.1.4.6 2 1.3 3.5.8 1.5 1.9 3.8 2.5 5.2.6 1.4 2.4 5.5 4.1 9.2 1.6 3.7 2.7 6.9 2.3 7.2-.3.3 0 .6.6.6.7 0 1.1.3 1 .7-.2.7 4.6 12.9 10.1 25.8.5 1.1 2.4 5.6 4.2 10 6 14.5 13.1 23.4 24 30.2 3.4 2.1 6.5 3.8 6.8 3.8.3.1 1.7.7 2.9 1.4 1.3.7 2.6 1 2.9.7.3-.3 1.5 0 2.6.6 1.2.6 4.5 1.2 7.5 1.3 2.9.2 5.6.5 5.9.8.3.3 1.5.2 2.8-.3 1.3-.5 2.5-.6 2.8-.3.5.4 20 .7 22.3.2.5-.1 1.4-.1 1.9 0 1.4.3 20.9.3 22.1 0 .5-.1 1.4-.1 1.9 0 1.4.2 29 .2 30.1 0 .5-.1 1.4-.1 1.9 0 1.5.3 52.8.3 54 .1.6-.1 1.5-.2 2-.1 1.4.3 20.9.3 22.1 0 .5-.1 1.4-.1 1.9 0 1.4.3 20.9.3 22.1 0 .5-.1 1.4-.1 1.9 0 1.2.3 52.9.3 54.1 0 .5-.1 1.4-.1 1.9 0 1.4.2 29 .2 30.1 0 .5-.1 1.4-.1 1.9 0 1.4.3 20.9.3 22.1 0 .5-.1 1.4-.1 1.9 0 1.4.3 20.9.3 22.1 0 .5-.1 1.4-.1 1.9 0 1.4.3 20.9.3 22.1 0 .5-.1 1.4-.1 1.9.1 1.3.2 12.8.2 14 0 .6-.1 1.5-.2 2-.1 1.4.3 20.9.3 22.1 0 .5-.1 1.4-.1 1.9 0 1.4.3 20.9.3 22.1 0 .5-.1 1.4-.1 1.9.1 1.3.2 12.8.2 14 0 .6-.1 1.5-.2 2-.1 1.4.3 20.9.3 22.1 0 .5-.1 1.4-.1 1.9 0 1.4.3 20.9.3 22.1 0 .5-.1 1.4-.1 1.9.1 1.3.2 12.8.2 14 0 .6-.1 1.5-.2 2-.1 1.4.3 20.9.3 22.1 0 .5-.1 1.4-.1 1.9 0 1.4.3 20.9.3 22.1 0 .5-.1 1.4-.1 1.9 0 1.4.3 20.9.3 22.1 0 .5-.1 1.4 0 1.9.1 2.7.5 20-.4 27.6-1.5 9-1.3 26.9-6.4 26.9-7.7 0-.5.4-.7.8-.4.4.2 4.8-1.5 9.7-4 5-2.4 9.5-4.4 10.2-4.4.6 0 1.3-.4 1.5-.8.3-.9 6.5-4.1 58.8-30.4 12.4-6.2 22.7-11.5 23-11.8.3-.3 3.4-1.9 6.9-3.5 3.6-1.7 8-4 9.8-5.2 1.8-1.2 3.3-2 3.3-1.8 0 .3 4.6-1.9 10.3-4.9 5.6-2.9 23.7-12.2 40.2-20.6 16.5-8.4 30.6-15.7 31.3-16.2.6-.6 1.2-.7 1.2-.3 0 .4.6.2 1.4-.4.7-.6 10.7-5.9 22.2-11.7 11.5-5.8 21.2-11.1 21.6-11.8.4-.6.8-.8.8-.3 0 .6 14-5.9 14-6.6 0-.5-983.2-.3-983.5.3zM1495 1225.5c0 .2 6 3.3 13.3 7 7.2 3.7 18.3 9.4 24.5 12.6 6.1 3.3 11.2 5.6 11.2 5.2 0-.5.4-.3.8.3s7.5 4.5 15.7 8.7c25.4 12.8 28 14.2 28.7 15.2.4.5.8.7.8.2 0-.4 2.8.8 6.3 2.7 3.4 1.8 21.1 10.9 39.2 20.1 18.2 9.3 40.4 20.6 49.4 25.2 9.1 4.6 17 8.8 17.8 9.4.7.6 1.3.8 1.3.4 0-.5.9 0 2.1 1.1 1.2 1 2.4 1.8 2.8 1.8.7-.2 4.9 1.9 15.9 7.8 3.9 2.1 7.2 3.5 7.2 3.1 0-.5.4-.4.8.2.4.5 3.9 2.6 7.7 4.5 3.9 1.9 7.6 3.9 8.4 4.4.7.6 2 1.1 2.9 1.3.9.1 1.8.7 2 1.2.2.6 1 1.1 1.8 1.1.7 0 2.8.8 4.6 1.8 2.8 1.5 10.6 4.4 13.1 4.8.4.1.9.3 1.2.4.3.1 1 .4 1.5.5.6.1 1.1.3 1.3.5.3.3 4.9 1 8 1.3 1.5.1 2.7.4 2.7.7 0 .3 3 .6 6.8.8 12.3.4 556.6.3 561.9-.2 2.9-.3 5.7-.7 6.2-1 .5-.3 2.6-.8 4.7-1.2 2.2-.3 4.5-1.1 5.2-1.6.6-.6 1.2-.7 1.2-.2 0 .4.5.3 1.2-.4s1.9-1.2 2.8-1.2c1.3 0 3.6-1 11.5-5.4 6.1-3.4 10.3-6.6 16.9-13.1 5-4.9 13.6-15.7 13.6-17.1 0-.4.7-1.5 1.6-2.5.8-.9 1.7-2.3 1.8-3.1.3-1.1 3.1-7.6 6.6-15.3 2.4-5.2 3.8-9.5 3.2-9.5-.4 0-.1-.4.7-.9.8-.5 1.6-1.7 1.7-2.6.2-1.6 1.3-4.2 6.1-15.5.8-1.9 1.9-4.4 2.4-5.5.4-1.1 2-4.9 3.4-8.5 1.4-3.6 3-7.4 3.5-8.5 4.4-9.8 6.5-15.5 6.2-16.8-.1-.4.2-.7.8-.7.5 0 1.3-1.5 1.8-3.3.6-1.7 1.7-4.8 2.6-6.8l1.5-3.7h-484.4c-266.5 0-484.5.1-484.5.3zM1239.5 1299.9c-2 .6-5.1 2.2-19 9.6-12.1 6.4-19 9.9-19.5 10-.3 0-1.1.4-1.8.9-4.7 2.9-65.9 33.6-67.1 33.6-.5 0-1.1.3-1.3.7-.4 1-24.1 12.8-25 12.5-.5-.1-.8.3-.8.8 0 .6-.5 1-1.1 1-4.3 0-13.7 9.4-14.6 14.5-1.9 10.4 1.2 19.2 8.3 23.8 4.2 2.7 57 29.5 69.2 35.1 11.3 5.1 16.9 4.9 44.2-1.9 6.6-1.7 30.1-12.3 32-14.5.3-.3 3.5-2.4 7.1-4.8 7.5-4.8 9.7-8.4 10.5-17.1.3-3.1.7-6.2 1-6.9 1.6-5 2.4-52.2 1.1-65.7-1.8-17.3-5.3-27-11.2-30.9-2.4-1.6-8.3-2-12-.7zM954.8 1563.5c-.2.2-2.5.5-5.3.8-14.4 1.6-28 8-38.1 18.1-4.5 4.6-11.4 14.4-11.4 16.3 0 .7-.5 1.3-1.2 1.3-.6 0-.9.3-.5.6.3.3-.3 2.5-1.3 4.9-1 2.4-2 5.3-2.2 6.6-.3 2.3-.1 2.4 7.7 2.5 8.3 0 17.5-1.7 20.1-3.8.9-.7 2.8-2.6 4.2-4.1 11-11.7 13.4-13.6 18.7-15.6 9.9-3.7 21.7-3.2 30.2 1.2 3.8 2 10.3 7.8 10.3 9.1 0 1.7 7.9 8.2 11.2 9.3 1.8.5 7.6 1 12.9 1.1l9.6.1-.4-3.7c-.5-5.4-4.8-16.4-7.8-19.9-.8-1-2.8-3.5-4.5-5.7-1.6-2.1-3-3.6-3-3.3 0 .3-1-.4-2.3-1.7-5.4-5.4-20.3-11.9-30.3-13.2-5.6-.7-16.2-1.3-16.6-.9zM812.4 1570.1c-7.1 1.6-13.1 5.9-16 11.5-1.6 3.1-21.9 54.7-22.9 58.4-.4 1.4-1.3 3.1-1.9 3.9-1.1 1.4 1 1.3 10.4-.2 4.3-.7 14.1-6.6 18.7-11.3 4.2-4.2 12.4-17.4 10.8-17.4-.2 0 .3-1.7 1.2-3.8.8-2 2-4.8 2.5-6.2l1-2.5 1.4 3.4c.8 1.9 1.2 3.6.9 3.9-.2.3.2 1.7 1 3.1.8 1.4 2.1 4.6 2.9 7.1 1.2 3.9 2.6 7.8 5.5 15.5 4.8 12.6 5.7 17.3 3.1 16.6-.8-.2-3.3-.2-5.5-.1s-4.9.2-6 .1c-1.1 0-2.9-.1-4 0-2.8 0-3.5 0-7.7-.3-2-.2-3.4.1-3.1.5.3.5-.4.6-1.5.3-5.6-1.8-18.8-.4-25.4 2.6-5.3 2.5-13.8 9.7-13.8 11.7 0 .6-.3 1.1-.7 1.1-1.1 0-3 4.4-2.5 5.8.2.8.9.9 2.1.2 1-.5 2.1-.7 2.4-.3.8.7 14.1.8 15.3 0 .6-.3 1.6-.2 2.3.3.8.4 2.7.4 4.2 0 1.6-.5 2.9-.6 2.9-.2 0 .9 19.4.7 20.9-.2.6-.4 1.1-.4 1.1.1 0 .7 13.1.9 16.5.3.6-.1 2.1-.1 3.5 0s4.1.3 6 .4c1.9 0 3.6.4 3.8.8 5.7 14 19.1 25.1 33.3 27.8 9.1 1.7 9 1.8 6.7-4.3-1.1-2.8-3.2-8.6-4.8-12.7-1.5-4.1-4.9-12.9-7.4-19.5-2.6-6.6-5.4-13.8-6.2-16-.9-2.2-2.2-5.3-3-6.8-.8-1.6-1.4-3.2-1.4-3.7s-.5-2.1-1.2-3.7c-.6-1.5-1.2-3-1.3-3.3-.6-1.8-2.3-6-4.4-11.3-.5-1.2-2.8-7.2-5.1-13.2-2.2-6.1-4.5-11.9-5-13-.4-1.1-1.2-2.9-1.6-4-4.3-11.4-5.5-13.3-11.4-17.6-5-3.8-10.8-5.1-16.6-3.8zM1093.4 1569.9c-.2.3-1.4.6-2.6.8-3.1.5-10.5 5.4-11.7 7.8-.6 1.1-1.5 2.7-2.1 3.5-.8 1.2-2.5 5.1-3.5 8-.5 1.5-1.9 4.9-3.1 7.7-.8 1.7-1.4 3.3-1.4 3.6 0 .2-.8 2.2-1.7 4.3-.9 2.2-1.7 4.1-1.8 4.4-.4 1.7-1.8 5.9-3 8.5-.7 1.6-1.9 4.6-2.8 6.5-.8 1.9-2.8 6.9-4.4 11-1.5 4.1-3 7.9-3.2 8.4-.4 1 8.6 0 12.6-1.4 6.6-2.4 11.9-5.8 16.8-10.6 5.6-5.5 7.1-8.3 12.1-21.4 2.5-6.5 3.4-8 3.9-6.5.7 2 4.3 12 7.6 21 7.5 20.8 9.1 25.6 8.7 26-.9.9-6.8 1.2-7.3.4-.3-.4-1.8-.4-3.4.1-1.6.4-3.2.6-3.5.3-.6-.7-7.5-1-7.1-.3.2.3-1.9.5-4.6.5-2.7 0-4.9-.3-4.9-.6 0-.4-1.5-.3-3.4.1s-4 .4-4.7-.1c-.7-.4-1.7-.5-2.2-.2-.4.3-2.6.6-4.7.8-10.5.9-23.6 10.8-26.4 20-.5 1.9-.2 2 8.5 1.8 5-.1 9.7-.4 10.5-.7.8-.3 1.4-.2 1.4.2 0 .9 19.3.7 20.9-.2.6-.4 1.1-.4 1.1.1 0 .9 15.2.9 16.7 0 .5-.3 1.5-.2 2.2.3.8.4 2.7.4 4.2 0 1.6-.5 2.9-.6 2.9-.2 0 .4 2.9.5 6.5.4 5.9-.3 6.5-.2 6.5 1.6 0 1.1.3 2.2.8 2.4.4.1 1.5 1.9 2.5 3.9 5.6 10.9 20.1 20.3 33.6 21.6 4.6.4 5.4.3 4.5-.8-.6-.8-1.7-3.4-2.4-5.9-.7-2.5-1.7-5-2.1-5.5-.3-.6-1-2.1-1.4-3.5-.4-1.4-1.3-3.9-2.1-5.5-.7-1.7-3.1-7.7-5.3-13.5-3.7-9.9-10.4-27.2-15.6-40.5-1.3-3.3-4.7-12.1-7.5-19.5-2.9-7.4-5.8-14.9-6.5-16.5-.7-1.7-2.1-5.2-3-7.8-2.4-6.3-10-13.2-15.9-14.2-5.5-1-8.6-1.2-9.2-.6zM1192.3 1570.1c-10.6 2.2-18.8 11.6-19.6 22.4-.2 1.9.5 2 29.3 2.1 32.3.2 35.5.4 42.3 3.4 14.1 6.2 20.1 18.3 20.1 40-.1 12.4-.7 16-4 22.9-3.1 6.5-9 12.4-15.4 15.4-4.3 2-6.3 2.2-38 2.5-22.1.2-33.7.7-34.1 1.4-.8 1.2.7 7.1 2.8 11.2 1.9 3.7 4.8 6.5 9.8 9.6 4 2.5 4.3 2.5 29.5 2.7 14 .1 28-.2 31-.8 16.3-3 29.4-11.3 37.7-23.7 3.6-5.6 8-15.2 8.9-19.5.2-1.2.6-3.3.9-4.7.3-1.4.8-3.6 1.1-5 .2-1.4.5-7.2.5-13 .2-18-3.2-30.8-11.4-43.4-2.9-4.6-15.2-15.6-17.4-15.6-.7 0-1.3-.3-1.3-.8 0-1.6-19-7-24.3-6.8-2 0-3.7-.1-3.7-.4 0-.7-41.3-.6-44.7.1zM1320.9 1570.5c0 .5-.1 10.8-.2 22.8-.2 24.6-.6 23.5 7.3 23 5.7-.3 6.7-.5 11.3-2.7 4-2 10-8.4 9.1-9.8-.3-.4-.1-.8.4-.8s1.2-1.8 1.6-4c.3-2.2 1-4.1 1.4-4.1.4-.1 12.6-.2 27.2-.3 25.2-.2 26.7-.4 30.8-2.5 6.2-3.2 9.8-7 12.5-13.2 2.4-5.5 2.5-8.8.4-9-.7 0-2-.2-2.9-.4-1-.2-1.8.1-1.8.6 0 .4-.7.6-1.5.3-2.8-1.1-95.5-1-95.6.1zM1484.8 1569.5c-.1.1-2.5.6-5.2.9-14.5 2-27.9 15.1-31.2 30.6-1.4 6.3-1.1 8.5 1.1 8.6 12.9.4 25.7 7.5 32.2 17.7 1.9 3 6.2 13.2 7.7 18.2.2.5.6 1.8 1 2.7.4.9.9 2.2 1 3 .2.7.9 2.6 1.5 4.3.7 1.6 1.4 3.4 1.5 4 .2.5.7 2.1 1.3 3.5.5 1.4 4.1 11.2 7.9 21.8l6.9 19.3 11.9-.3 11.9-.3 1.9-5.5c1-3 2.1-6.2 2.5-7 .3-.8.7-1.8.8-2.3.2-.4.4-.9.5-1.2.1-.3.3-.8.5-1.3.1-.4.4-1.4.7-2.2 4.7-12.7 7.1-19.7 7.1-20.7 0-.7.4-1.3.7-1.3.4 0 1-1.2 1.3-2.8.3-1.5 1.1-4.1 1.8-5.7.7-1.7 1.3-3.5 1.5-4 .1-.6 2.1-6.2 4.4-12.5 2.3-6.3 5.1-14.2 6.3-17.5 1.1-3.3 2.4-6.1 2.8-6.3.4-.2.5-1 .2-1.8s-.1-1.4.3-1.4c.5 0 .9 16.1 1 35.8 0 34.7.1 35.8 2.3 40.8 3.8 8.7 12.4 15.5 21.4 16.8l4.7.7v-27.8c.2-66.8.1-68.6-1.4-74.8-2.2-8.3-8.9-18.1-16.7-24.1-3-2.3-12.9-6.4-16.5-6.9-2.2-.2-4.8-.7-6-.9-1.9-.4-2.4.6-4.9 8.2-1.6 4.8-3.3 9.3-3.8 9.9-.5.7-.7 1.3-.4 1.3.2 0-.9 3.7-2.5 8.2-1.6 4.6-3.1 9-3.3 9.8-.2.8-.4 1.5-.5 1.5-.1 0-.3.7-.5 1.5-.4 2.2-3.5 11.2-4.2 12.4-.4.6-.8 1.7-.9 2.6-.1 1.3-5.6 18.1-7.1 22-.3.8-.7 1.9-.8 2.5-.9 3.7-3.8 11.5-4.4 11.5-.6 0-8.1-20.5-8.3-22.8-.1-.6-.4-1.2-.8-1.2-.3 0-.7-1-.7-2.2-.1-1.3-.6-3.2-1.2-4.3-.9-1.9-2-5-2.1-6 0-.3-.9-2.5-2-5s-2-4.7-2-5c-.1-.9-3-9.3-11.2-32.4-4-11.3-4.6-12.4-7-12.7-1.4-.1-2.8-.1-3 .1zM1606.7 1569.8c-1.6.3-1.6.6.3 3.2 1.1 1.5 2 3.3 2 3.9 0 .6.5 1.1 1 1.1.6 0 1 .4 1 .9s1.4 3.1 3.2 5.8l3.2 4.9h16.8c9.2 0 16.8-.4 16.8-.9 0-2-12-12.4-17.1-14.9-6.7-3.3-20.5-5.3-27.2-4z"/><path d="M1724 1570.2c0 .3-.8.4-1.8.1-5.1-1.3-21 6.9-26.1 13.5-2.4 3-10.5 15.6-14.2 21.8-6.5 11.3-9.1 15.4-9.9 15.9-.5.3-2.5-2.2-4.5-5.5-6.5-10.7-14.2-16.9-23-18.6-2.1-.4-8-.8-13.1-.8-10.4-.2-10.2-.5-4.9 7.9 10.4 16.4 18.5 29.7 18.5 30.6 0 .5.5.9 1 .9.6 0 1 .6 1 1.4 0 .8.4 1.6.8 1.8 1.8.7 8.1 13.5 7.7 15.6-.2 1.2.1 2.2.6 2.2.6 0 .7.5.3 1.1-.9 1.4-1.1 18.9-.2 18.9.4 0 .3 1.3-.2 3-.5 1.8-.5 3.2.1 3.6.6.3.6 1.1.2 1.7-.5.7-.7 4.1-.7 7.7.3 12.1-.1 11.1 4.5 10.5 10.2-1.3 19-8 23.4-17.6 2.5-5.6 2.7-7.3 2.9-19.8.1-8.7.7-14.4 1.5-15.9.7-1.3 7-11.6 14.2-22.9 7.1-11.3 12.9-20.8 12.9-21 0-.3 1-1.9 2.3-3.6 1.2-1.7 2.7-3.9 3.2-4.9.6-1 4.3-7 8.3-13.4 3.9-6.4 7.2-12 7.2-12.5s.5-.9 1.1-.9c.5 0 .8-.4.5-.9-.7-1-2.5-.9-4.3.2-.7.5-1.3.5-1.3 0 0-.4-1.8-.8-4-.8s-4 .3-4 .7zM1175.5 1601.8l-3 .3v34.9c0 19.3.2 35 .5 35.1 3.3.6 14 .2 14-.5 0-.6.5-.5 1.1.1.7.7 2.1.8 4 .3 1.6-.5 2.9-.6 2.9-.2 0 .4 1.8.7 4.1.7h4l-.3-24c-.3-22.8-.4-24.2-2.7-28.8-4-8.2-13.8-16.7-19.3-16.7-.9 0-1.8-.3-2-.8-.1-.4-1.7-.6-3.3-.4zM1447.8 1617.6c-.4.8-.3 83.3.1 85.8.2 1.3 7.8-.2 12.3-2.5 8.3-4.2 14.2-12.3 15.4-20.9.8-5.8.7-35.5 0-39.8-1.6-8.6-7.3-16-15.3-20.2-4.7-2.4-11.8-3.7-12.5-2.4zM892.4 1623.5c-.5 2.1-.8 10.1-.5 15.2.1 2.3.2 2.3 15.6 2.3h15.4l-.5-5.1c-1.1-11.6-4.6-14.2-19-14.4-10-.2-10.5-.1-11 2zM1337 1624.3c-4.4 1.1-11.2 6.3-13.4 10.1-1 1.7-2 5.1-2.3 7.6l-.5 4.5 46.3-.2c25.5-.1 47.5-.2 48.9-.2l2.5-.1-.2-10.7c-.1-6-.2-11.1-.2-11.4-.2-1-77.3-.6-81.1.4zM895.8 1647.8c-1.6.2-2.8.6-2.8 1 0 1.9 4.2 15.8 5.1 16.6.5.6.9 1.8.9 2.8 0 1 .5 1.8 1 1.8.6 0 1 .5 1 1.1 0 2.8 8.4 12.9 16.1 19.4 3.8 3.2 13.8 8.1 21.4 10.6 10.3 3.3 33.1 3.3 41.8 0 1.5-.6 2.7-.9 2.7-.6 0 .2 3.3-1.2 7.3-3.3 9.8-5 19.2-14.3 24-23.9 3.5-6.9 5-12 6.3-20.4l.5-3.7-10.3.3c-5.7.1-10.4.3-10.5.5-.2.1-.8.3-1.3.4-2.6.3-8.2 6.2-11 11.5-6.6 12.3-14.6 17.2-28.5 17.3-9.9.1-18.1-3.1-24.6-9.6-4.6-4.6-8.7-11.5-9.5-16.3-.3-1.6-.9-3-1.5-3.1-.5-.2-.6-.8-.3-1.4.4-.7-.6-.9-3-.6-2 .2-3.6.1-3.6-.2 0-.3-2.5-.3-5.6 0-3 .3-5.7.3-6-.2-.3-.4-1.5-.3-2.8.2-1.3.5-2.7.5-3.2.1-.5-.3-2.1-.5-3.6-.3zM1320.8 1654.9c-.2.9-.3 12.2-.2 25.1v23.5l52.6.3 52.7.2-.5-3.3c-1-8.7-6-15.2-14.3-19.1-5.4-2.4-5.8-2.5-32.5-2.6-26.9-.1-29.2-.3-28-3.5.7-1.7-2.9-9.5-6-13.2-3-3.5-8.3-7.1-11.2-7.6-1-.1-2.4-.6-3-.9-.5-.4-2.9-.7-5.1-.6-3 0-4.2.5-4.5 1.7zM753.4 1690.7c-2.1 5.4-4.1 10.3-4.6 10.9-1.3 1.8.2 2.4 5.6 2.4 9 0 17.8-3.7 25-10.3 1.4-1.3 2.6-2.9 2.6-3.6 0-.6.4-1.1.8-1.1.7 0 4.2-6.2 4.2-7.5 0-.2-6.7-.4-14.9-.4l-14.9-.2-3.8 9.8zM1037 1683c-.6 1.1-.8 2-.4 2 .3 0 .2.6-.4 1.3-.6.7-2 3.9-3.2 7.2-1.1 3.3-2.5 6.8-3.1 7.7-1.4 2.7-1.3 2.8 4.9 2.8 14 0 27.3-8.7 32.4-21.1.6-1.6-.7-1.7-14.2-1.8-13.9-.1-15 .1-16 1.9z"/></svg>