<?xml version="1.0" standalone="no"?>
<!DOCTYPE svg PUBLIC "-//W3C//DTD SVG 20010904//EN"
 "http://www.w3.org/TR/2001/REC-SVG-20010904/DTD/svg10.dtd">
<svg version="1.0" xmlns="http://www.w3.org/2000/svg"
 width="2464.000000pt" height="2464.000000pt" viewBox="0 0 2464.000000 2464.000000"
 preserveAspectRatio="xMidYMid meet">
<metadata>
Created by potrace 1.14, written by Peter Selinger 2001-2017
</metadata>
<g transform="translate(0.000000,2464.000000) scale(0.100000,-0.100000)"
fill="#000000" stroke="none">
<path d="M21800 17024 c-30 -7 -57 -13 -60 -13 -138 -32 -277 -114 -391 -231
-105 -107 -185 -256 -214 -400 -2 -8 -4 -15 -5 -15 -9 0 -13 -170 -14 -530
l-1 -430 45 0 c181 -2 396 93 545 240 53 52 120 138 137 176 7 16 16 29 20 29
5 0 8 5 8 10 0 6 7 27 16 48 10 20 18 42 20 47 49 177 46 140 48 628 l2 458
-51 -2 c-27 -1 -75 -8 -105 -15z"/>
<path d="M23404 17002 c-123 -113 -230 -210 -257 -232 -16 -14 -49 -43 -72
-65 -23 -22 -64 -60 -91 -84 -70 -62 -201 -181 -240 -216 -18 -16 -68 -61
-110 -100 -43 -38 -90 -82 -106 -97 -15 -16 -29 -28 -32 -28 -2 0 -20 -15 -38
-32 -19 -18 -74 -69 -123 -113 -152 -137 -187 -169 -216 -198 -16 -16 -29 -27
-29 -24 0 2 -24 -19 -54 -47 -29 -28 -86 -80 -126 -116 -40 -36 -85 -76 -100
-90 -56 -51 -183 -166 -205 -185 -208 -184 -283 -261 -333 -335 -44 -66 -102
-182 -95 -192 2 -5 -1 -8 -6 -8 -6 0 -11 -10 -11 -23 0 -13 -3 -27 -7 -31 -5
-4 -8 -11 -9 -14 0 -10 -16 -94 -21 -117 -2 -11 -5 -42 -6 -70 l-1 -50 418 0
418 0 28 70 c56 140 176 315 216 315 8 0 14 4 14 10 0 10 71 33 110 35 75 3
192 -78 275 -190 16 -22 33 -44 37 -50 5 -5 19 -26 31 -45 13 -19 43 -64 68
-98 24 -35 49 -71 54 -80 6 -9 14 -21 18 -26 8 -10 45 -64 202 -291 38 -55 84
-120 102 -145 18 -25 36 -53 39 -62 4 -10 10 -18 15 -18 5 0 9 -6 9 -14 0 -8
4 -16 8 -18 8 -3 184 -254 191 -273 2 -5 13 -18 24 -27 11 -10 17 -18 13 -18
-4 0 5 -17 21 -37 16 -21 53 -74 83 -118 30 -44 61 -87 69 -95 13 -13 86 -15
537 -15 413 0 520 3 517 13 -3 6 -9 12 -14 12 -5 0 -9 4 -9 9 0 8 -124 182
-168 236 -4 6 -37 50 -72 100 -36 49 -70 97 -77 105 -7 8 -46 62 -87 120 -41
58 -81 112 -88 120 -7 8 -34 44 -60 80 -25 36 -53 73 -61 82 -9 9 -13 19 -9
22 3 3 1 6 -4 6 -5 0 -20 18 -34 40 -14 22 -28 40 -32 40 -5 0 -8 6 -8 13 0 7
-9 19 -20 27 -11 8 -20 18 -20 23 0 4 -4 13 -10 20 -33 40 -90 117 -90 122 0
5 -24 36 -47 60 -7 8 -13 16 -13 18 0 7 -125 177 -145 198 -8 9 -15 19 -15 22
0 4 -7 15 -15 24 -38 46 -115 155 -115 162 0 5 -7 11 -15 15 -8 3 -15 12 -15
21 0 8 -4 15 -8 15 -8 0 -42 53 -44 67 0 5 -9 20 -20 36 -11 15 -17 27 -14 27
3 0 -1 12 -9 27 -8 15 -12 30 -9 35 3 4 0 8 -6 8 -6 0 -9 4 -5 9 3 5 1 12 -4
16 -6 3 -8 12 -4 20 3 8 1 15 -3 15 -10 0 -12 12 -17 145 -2 62 2 125 10 165
8 36 16 73 18 82 2 9 9 26 15 37 6 12 8 21 5 21 -4 0 2 12 13 28 11 15 22 37
26 49 10 30 70 110 139 183 32 33 58 60 60 60 1 0 108 104 237 230 129 127
238 230 242 230 4 0 8 7 8 15 0 8 3 15 8 15 4 0 111 101 237 225 l230 225
-525 0 -525 0 -41 -38z"/>
<path d="M2353 16950 c-21 -3 -54 -26 -98 -67 -36 -35 -68 -63 -70 -63 -2 0
-23 -19 -48 -42 -24 -24 -75 -71 -113 -104 -38 -34 -81 -73 -95 -85 -14 -13
-61 -56 -105 -95 -43 -40 -91 -83 -105 -95 -22 -20 -72 -66 -228 -208 -14 -12
-57 -51 -95 -85 -38 -33 -81 -72 -96 -86 -15 -14 -67 -61 -115 -105 -49 -44
-99 -90 -112 -103 -13 -13 -23 -21 -23 -19 0 2 -29 -23 -65 -57 -35 -33 -83
-77 -105 -96 -23 -19 -56 -49 -73 -65 -18 -17 -79 -73 -137 -125 -58 -51 -123
-110 -145 -131 -22 -20 -53 -49 -70 -63 -58 -50 -198 -181 -216 -201 -59 -66
-74 -86 -109 -145 -42 -69 -95 -196 -104 -245 -2 -16 -7 -41 -11 -55 -3 -14
-8 -55 -11 -92 -6 -67 -6 -68 17 -69 160 -5 813 1 819 7 4 5 13 27 20 49 13
40 68 156 79 165 8 7 29 41 38 60 12 29 101 107 143 127 80 37 181 13 266 -65
56 -52 234 -289 234 -312 0 -6 4 -10 9 -10 5 0 12 -8 15 -17 3 -10 16 -29 29
-43 13 -14 26 -32 30 -40 4 -8 38 -60 77 -115 39 -55 102 -147 142 -205 39
-58 74 -107 77 -110 3 -3 39 -54 80 -115 41 -60 79 -113 85 -117 6 -4 7 -8 3
-8 -4 0 4 -12 18 -27 14 -15 25 -33 25 -39 0 -6 9 -19 20 -29 11 -10 20 -24
20 -31 0 -7 4 -14 8 -16 5 -2 28 -32 52 -68 24 -36 47 -66 52 -68 4 -2 8 -9 8
-15 0 -7 11 -24 24 -39 14 -14 22 -29 19 -32 -4 -3 -2 -6 4 -6 5 0 18 -16 29
-35 16 -31 23 -35 59 -35 178 -3 1008 -1 1010 2 2 2 -20 36 -48 75 -29 39 -59
81 -67 93 -8 13 -20 28 -25 34 -6 6 -26 33 -45 61 -45 64 -45 64 -73 100 -13
17 -54 73 -92 125 -38 52 -73 100 -77 105 -7 9 -103 139 -156 214 -9 13 -22
29 -29 36 -7 7 -9 15 -6 19 4 3 1 6 -5 6 -5 0 -21 17 -33 38 -13 20 -29 43
-37 51 -7 8 -21 26 -30 40 -9 14 -22 30 -29 34 -7 4 -13 12 -13 17 0 5 -29 49
-66 97 -36 48 -73 99 -82 112 -9 13 -28 36 -40 52 -13 16 -21 29 -18 29 4 0
-2 10 -14 23 -39 43 -70 85 -70 95 0 6 -4 12 -9 14 -12 4 -235 312 -237 326 0
4 -11 30 -23 57 -13 28 -24 57 -26 65 -2 8 -4 15 -5 15 -2 0 -6 16 -20 85 -11
55 -14 194 -5 240 14 72 18 88 28 120 6 19 15 39 19 45 4 5 8 16 8 25 0 8 23
51 51 95 53 84 117 150 769 785 318 310 360 352 360 360 0 3 -222 5 -493 5
-270 0 -506 -2 -524 -5z"/>
<path d="M3738 16915 c-3 -22 -1 -42 4 -43 4 -2 5 -8 2 -14 -10 -16 -10 -148
-1 -148 5 0 5 -5 1 -11 -9 -16 -10 -149 -1 -149 5 0 5 -5 1 -11 -10 -16 -11
-149 -1 -149 4 0 4 -8 0 -17 -9 -19 -9 -23 0 -143 10 -128 87 -328 161 -419
78 -96 239 -231 282 -237 9 -1 23 -9 32 -17 33 -29 216 -76 319 -81 l41 -3 -1
414 c-1 227 2 413 6 413 5 0 5 5 2 10 -8 12 -51 11 495 11 490 0 565 -3 650
-27 30 -8 64 -17 74 -19 11 -3 22 -8 25 -12 3 -5 12 -9 19 -11 60 -12 184
-153 195 -220 1 -9 5 -21 9 -27 18 -29 31 -282 16 -291 -5 -3 -6 -9 -3 -14 9
-15 -16 -113 -43 -170 -35 -73 -100 -140 -169 -176 -31 -15 -63 -29 -69 -30
-7 -1 -28 -7 -46 -13 -18 -6 -46 -13 -63 -17 -16 -4 -329 -8 -695 -10 -366 -1
-692 -5 -726 -8 -74 -7 -157 -35 -232 -78 -60 -34 -195 -164 -186 -179 3 -5 2
-9 -3 -9 -7 0 -68 -119 -66 -130 0 -3 -3 -14 -7 -26 -13 -33 -22 -122 -15
-144 5 -15 10 -18 23 -11 10 6 23 6 34 0 10 -5 18 -6 18 -2 0 8 1597 7 1711
-1 174 -13 293 -69 388 -182 43 -51 115 -229 127 -312 3 -20 7 -50 9 -67 11
-68 17 -123 18 -167 1 -27 4 -48 7 -48 3 0 6 -12 6 -27 2 -45 14 -194 20 -243
9 -76 56 -181 101 -228 7 -7 16 -19 20 -26 14 -24 124 -95 171 -110 76 -25 96
-26 332 -27 268 0 309 1 293 8 -7 2 -13 11 -13 19 0 8 -3 14 -7 14 -7 0 -46
82 -48 100 -1 3 -6 21 -13 40 -25 77 -48 228 -57 390 -2 30 -4 55 -5 55 -1 0
-3 43 -5 95 -3 98 -12 230 -19 265 -2 11 -7 43 -10 70 -20 141 -81 313 -149
413 -28 42 -112 131 -153 162 -30 24 -135 76 -179 90 -22 7 -44 15 -49 18 -4
2 38 27 94 54 56 28 110 56 119 63 102 82 145 121 177 162 22 26 41 50 44 53
11 11 84 150 87 165 1 6 11 35 22 65 10 30 22 69 25 85 2 17 7 41 10 55 12 49
20 157 19 245 -2 135 -14 209 -52 321 -55 161 -164 321 -290 424 -88 72 -251
171 -251 153 0 -5 -4 -3 -8 3 -16 24 -220 81 -357 100 -27 4 -537 7 -1132 8
l-1081 1 -4 -40z"/>
<path d="M7679 16935 c-3 -78 0 -740 4 -780 29 -287 210 -539 480 -669 32 -15
66 -29 75 -31 9 -2 19 -4 22 -5 3 -1 8 -2 13 -1 4 0 7 -4 7 -11 0 -6 3 -9 6
-6 3 3 29 0 57 -6 29 -7 80 -13 113 -15 l61 -2 -1 455 c-1 449 -1 456 19 457
11 0 171 0 355 0 333 0 448 -4 518 -16 20 -3 51 -8 69 -10 43 -5 116 -30 182
-62 90 -44 185 -153 215 -246 3 -9 6 -19 7 -22 28 -85 33 -277 10 -365 -31
-115 -94 -207 -185 -269 -45 -31 -164 -81 -205 -86 -14 -2 -26 -4 -26 -5 0 -4
-47 -10 -97 -12 -32 -2 -58 -5 -58 -8 0 -3 -240 -5 -533 -5 -292 1 -536 -1
-541 -4 -5 -2 -26 -6 -46 -7 -76 -6 -219 -72 -299 -139 -82 -69 -178 -214
-196 -295 -2 -8 -8 -37 -15 -64 -6 -27 -8 -51 -5 -54 2 -3 1 -10 -4 -16 -5 -6
-5 -20 -1 -31 8 -21 11 -21 966 -19 528 2 970 5 984 7 14 3 47 8 75 12 78 11
117 19 135 25 3 1 10 3 15 4 28 4 134 40 183 62 90 40 106 48 114 59 4 5 8 6
8 2 0 -12 169 107 217 153 36 34 66 68 153 177 43 53 135 270 154 363 3 14 7
36 10 50 14 61 25 169 26 245 1 61 -8 198 -14 225 -4 22 -16 82 -20 105 -1 11
-5 27 -8 35 -3 8 -15 47 -27 85 -32 97 -94 219 -149 294 -62 84 -249 251 -280
251 -6 0 -12 4 -14 9 -3 10 -181 101 -197 101 -6 0 -19 4 -29 9 -23 13 -53 23
-77 28 -11 2 -31 7 -45 12 -14 5 -43 13 -65 17 -22 4 -47 9 -55 10 -21 5 -93
14 -165 21 -33 3 -473 6 -978 7 -910 1 -917 1 -918 -19z"/>
<path d="M12394 16948 c-3 -4 -11 -5 -18 -2 -29 11 -252 -66 -276 -95 -3 -3
-21 -18 -41 -33 -37 -27 -80 -69 -109 -104 -24 -30 -75 -118 -72 -126 1 -5 -2
-8 -7 -8 -5 0 -12 -11 -15 -25 -3 -13 -11 -37 -18 -52 -6 -15 -12 -30 -13 -33
-3 -8 -16 -41 -46 -112 -15 -36 -25 -69 -22 -72 4 -3 1 -6 -6 -6 -6 0 -11 -6
-10 -12 2 -7 -5 -30 -13 -50 -9 -20 -71 -178 -138 -350 -67 -172 -128 -326
-136 -342 -8 -16 -14 -34 -14 -40 -1 -6 -9 -29 -20 -51 -11 -22 -19 -46 -20
-53 0 -7 -4 -20 -9 -30 -14 -28 -29 -63 -59 -142 -16 -41 -33 -84 -37 -95 -5
-11 -9 -22 -10 -25 -2 -6 -23 -59 -32 -80 -3 -8 -8 -24 -10 -34 -2 -11 -8 -25
-13 -31 -5 -7 -7 -15 -3 -18 3 -4 1 -7 -5 -7 -7 0 -11 -11 -10 -24 1 -14 5
-23 8 -21 3 2 38 6 77 9 39 3 95 11 125 17 55 11 239 69 248 79 3 3 40 23 83
44 42 22 86 48 97 58 10 10 22 18 24 18 21 0 256 235 256 256 0 3 6 12 13 19
29 33 36 43 31 48 -2 2 2 10 11 17 8 7 15 18 15 25 0 8 3 15 8 17 7 3 58 112
80 173 6 17 17 44 23 60 7 17 13 32 14 35 7 31 30 88 39 99 6 8 9 15 6 15 -4
1 18 69 40 121 4 11 11 28 14 38 7 23 26 13 26 -14 0 -10 4 -19 8 -19 5 0 9
-6 9 -12 0 -12 103 -304 199 -568 19 -52 36 -99 37 -105 1 -5 8 -23 14 -40 7
-16 39 -109 73 -205 34 -96 77 -217 96 -269 19 -51 32 -96 29 -99 -3 -3 -285
-6 -628 -7 -342 -1 -640 -5 -662 -9 -52 -9 -184 -46 -204 -56 -9 -4 -46 -23
-83 -41 -38 -18 -68 -37 -68 -42 0 -4 -4 -5 -10 -2 -5 3 -10 2 -10 -4 0 -5 -9
-12 -19 -16 -28 -9 -183 -163 -222 -220 -19 -27 -36 -52 -39 -55 -11 -10 -70
-132 -70 -145 0 -10 195 -13 1033 -13 567 -1 1074 -1 1125 -2 50 0 91 -3 90
-7 -3 -15 72 -174 114 -243 55 -89 150 -199 251 -287 105 -94 327 -211 450
-239 4 -1 8 -2 10 -4 1 -1 10 -3 19 -5 9 -2 39 -8 68 -14 28 -6 88 -14 133
-17 45 -3 87 -7 92 -8 15 -2 7 30 -36 141 -23 56 -42 109 -43 117 -1 9 -8 22
-14 28 -7 7 -12 20 -12 29 0 9 -11 41 -23 70 -34 79 -40 92 -43 112 -2 10 -11
29 -20 42 -8 13 -15 25 -14 27 2 4 -7 30 -52 148 -54 141 -54 141 -66 170 -6
14 -30 75 -53 135 -22 61 -46 121 -52 135 -6 14 -11 27 -12 30 -1 3 -5 14 -10
25 -4 11 -52 137 -107 280 -138 361 -148 386 -163 420 -7 17 -23 57 -35 90
-26 72 -34 92 -48 125 -5 14 -24 63 -42 110 -17 47 -36 93 -41 102 -5 10 -9
22 -9 27 0 5 -8 26 -17 47 -9 22 -17 41 -18 44 -1 3 -5 14 -10 25 -8 20 -30
77 -125 325 -28 74 -55 144 -60 155 -5 11 -32 81 -60 155 -28 74 -55 144 -59
155 -7 18 -32 69 -68 137 -18 36 -145 168 -161 168 -6 0 -12 5 -12 10 0 6 -7
10 -15 10 -8 0 -15 5 -15 11 0 5 -4 8 -9 5 -5 -3 -14 1 -21 9 -7 8 -16 15 -20
15 -4 0 -25 7 -46 16 -22 9 -39 16 -39 14 0 -1 -13 3 -28 9 -49 19 -205 33
-213 19z"/>
<path d="M15340 16957 c-3 -3 -32 -7 -65 -10 -96 -9 -204 -37 -233 -60 -7 -5
-15 -7 -19 -4 -3 4 -18 -2 -33 -13 -16 -11 -31 -20 -34 -20 -7 0 -78 -45 -110
-70 -58 -44 -132 -123 -175 -185 -52 -75 -96 -155 -85 -155 4 0 -1 -9 -11 -20
-10 -11 -15 -20 -10 -20 4 0 2 -7 -5 -15 -7 -8 -10 -15 -7 -15 4 0 0 -18 -8
-40 -8 -22 -14 -43 -14 -45 0 -3 -3 -36 -7 -73 -4 -37 -8 -516 -8 -1065 -1
-753 2 -1001 11 -1008 6 -6 29 -8 50 -5 21 3 54 8 73 11 35 4 51 7 105 20 50
12 227 102 270 137 92 76 215 216 215 246 0 5 4 12 8 14 19 8 83 183 99 269 8
46 11 2089 3 2112 -3 10 -8 16 -10 14z"/>
<path d="M17447 16952 c-16 -3 -17 -52 -17 -642 l0 -639 168 3 c158 4 207 8
242 23 8 3 23 8 33 9 51 11 202 110 235 155 7 10 18 24 25 31 21 23 79 108 81
121 2 7 8 24 14 38 23 56 38 128 41 191 l1 27 698 1 c383 0 708 2 722 4 58 9
89 17 131 31 47 17 152 69 177 88 32 26 159 153 166 167 10 22 30 56 42 71 9
12 57 132 59 149 1 3 4 23 8 45 15 82 16 125 4 126 -35 3 -2816 3 -2830 1z"/>
<path d="M648 16931 c-37 -9 -70 -19 -74 -23 -4 -5 -14 -8 -23 -8 -20 -1 -163
-72 -181 -90 -3 -3 -23 -18 -45 -35 -138 -101 -259 -286 -301 -460 -2 -5 -6
-21 -10 -35 -4 -14 -9 -237 -11 -497 l-4 -471 53 4 c122 9 191 27 293 74 205
94 357 253 439 460 10 25 19 52 21 61 2 9 9 34 16 55 9 28 13 169 16 512 l4
473 -63 -2 c-35 -2 -93 -10 -130 -18z"/>
<path d="M18037 15484 c-3 -3 -25 -8 -49 -10 -61 -7 -72 -9 -83 -15 -5 -4 -23
-9 -39 -13 -33 -8 -136 -58 -162 -78 -9 -7 -39 -34 -67 -60 -27 -27 -53 -48
-56 -48 -6 -1 -73 -105 -80 -125 -1 -5 -11 -26 -21 -45 -15 -31 -23 -55 -37
-120 -10 -44 -14 -120 -6 -121 48 -5 2668 -2 2675 2 6 4 8 14 5 23 -4 9 -3 16
1 16 9 0 9 77 0 85 -3 4 -3 19 2 34 4 15 3 35 -2 44 -5 11 -5 17 0 17 10 0 9
56 -1 66 -3 3 -1 19 3 35 5 16 5 42 0 58 -4 16 -6 32 -3 34 8 8 9 108 2 113
-4 2 -4 18 1 35 11 36 -4 73 -25 65 -8 -3 -28 -1 -44 4 -17 5 -31 6 -31 2 0
-4 -90 -7 -200 -7 -110 0 -200 3 -200 7 0 4 -10 4 -22 0 -13 -4 -36 -6 -53 -5
-36 4 -12 4 -228 1 -97 -2 -177 0 -177 4 0 4 -10 4 -22 0 -13 -4 -36 -6 -53
-5 -38 4 -32 4 -148 1 -53 -2 -97 0 -97 4 0 4 -10 4 -22 0 -13 -4 -36 -6 -53
-5 -38 4 -32 4 -148 1 -53 -2 -97 0 -97 4 0 4 -7 5 -16 1 -24 -9 -86 -10 -116
-2 -16 4 -28 4 -28 0 0 -7 -176 -4 -197 4 -7 2 -13 1 -13 -4 0 -9 -62 -7 -77
2 -6 4 -13 4 -16 1z"/>
<path d="M17434 14651 c-2 -2 -4 -316 -4 -698 l0 -693 43 0 c369 -5 2839 0
2848 5 7 5 9 24 5 54 -5 44 -7 56 -22 126 -8 38 -53 134 -72 158 -8 9 -12 17
-8 17 24 0 -147 178 -194 202 -14 7 -27 16 -30 19 -9 12 -117 59 -166 74 -85
24 -135 26 -855 26 l-706 0 -6 57 c-7 62 -14 106 -24 137 -4 11 -8 25 -9 30
-1 6 -12 33 -25 60 -12 28 -23 52 -23 55 -1 3 -17 28 -35 55 -47 69 -146 166
-212 207 -62 39 -169 85 -214 92 -16 2 -42 7 -57 11 -30 8 -227 13 -234 6z"/>
<path d="M3739 14496 c0 -6 -1 -32 -2 -58 -2 -27 1 -48 6 -48 4 0 5 -5 1 -11
-9 -15 -8 -195 2 -210 4 -7 3 -10 -2 -6 -5 3 -9 -50 -9 -124 0 -71 4 -129 8
-129 5 0 5 -5 1 -11 -9 -15 -8 -195 2 -210 4 -7 3 -10 -2 -6 -5 3 -9 -50 -9
-124 0 -71 4 -129 8 -129 5 0 5 -5 1 -11 -4 -6 -7 -44 -7 -83 l0 -71 60 -1
c87 -1 223 37 330 91 51 26 93 51 93 55 0 5 8 11 18 14 24 8 125 108 173 171
40 53 113 185 103 185 -4 0 -2 6 4 13 13 17 44 123 51 177 3 25 6 155 6 290
l0 245 -417 1 c-302 1 -418 -2 -419 -10z"/>
<path d="M7679 14373 c-1 -23 -1 -1083 0 -1102 1 -11 16 -12 77 -8 324 27 605
247 714 560 39 112 44 152 45 377 l0 185 -417 3 c-393 2 -418 1 -419 -15z"/>
<path d="M21150 14340 l-35 -5 0 -492 c0 -323 3 -493 10 -494 43 -5 128 5 183
20 18 5 33 9 35 9 1 -1 20 5 42 12 112 36 265 135 341 221 22 24 47 51 57 61
9 10 15 18 11 18 -3 0 6 15 20 33 15 19 26 39 26 45 0 7 3 12 8 12 14 0 65
129 86 221 22 96 29 328 10 336 -17 6 -750 9 -794 3z"/>
<path d="M4 14251 c-2 -2 -4 -227 -4 -499 l0 -495 76 6 c111 9 202 35 307 88
34 18 72 39 83 48 12 9 32 23 44 31 70 48 172 167 224 261 74 134 101 249 105
434 l2 130 -416 0 c-229 0 -418 -2 -421 -4z"/>
<path d="M14575 13941 c-2 -5 -16 -6 -30 -3 -26 4 -26 4 -24 -49 5 -114 55
-247 132 -354 35 -49 132 -145 147 -145 4 0 13 -7 20 -15 17 -20 144 -80 195
-91 11 -3 43 -9 70 -15 38 -8 1607 -15 2093 -9 l43 0 -7 68 c-3 37 -10 75 -15
85 -6 9 -7 17 -4 17 3 0 -1 15 -9 34 -8 19 -12 37 -8 40 3 3 1 6 -5 6 -6 0
-14 12 -18 27 -14 58 -119 196 -192 253 -58 45 -173 109 -206 114 -7 1 -18 5
-24 9 -7 5 -13 6 -13 2 0 -3 -8 -1 -17 4 -10 5 -45 12 -78 15 -73 8 -1135 10
-1142 2 -3 -3 -14 -1 -24 5 -12 6 -19 6 -19 0 0 -6 -11 -6 -30 -1 -16 5 -32 5
-35 0 -3 -5 -18 -5 -34 0 -16 4 -32 6 -35 2 -8 -7 -69 -7 -89 1 -9 3 -19 2
-22 -3 -4 -7 -13 -7 -24 0 -10 5 -21 6 -25 3 -3 -4 -25 -6 -49 -5 -56 2 -220
3 -229 2 -24 -4 -77 -2 -91 3 -10 4 -17 3 -17 -1 0 -9 -95 -7 -109 3 -6 3 -11
2 -11 -4 0 -6 -11 -6 -30 -1 -16 5 -32 5 -35 1z"/>
<path d="M10786 13811 c-17 -42 -36 -92 -45 -111 -8 -19 -16 -39 -17 -45 -10
-35 -70 -181 -77 -186 -5 -3 -8 -10 -8 -15 1 -12 -8 -43 -19 -69 -43 -98 -48
-115 -38 -121 21 -13 264 -5 347 11 83 16 206 61 280 102 65 36 179 125 230
178 66 71 167 224 163 248 -1 4 2 7 7 7 5 0 12 11 15 24 3 13 8 31 12 39 4 13
-49 15 -408 15 l-413 0 -29 -77z"/>
<path d="M11717 13525 c-9 -7 -17 -15 -17 -19 0 -14 -87 -123 -142 -176 -74
-72 -137 -116 -234 -164 -140 -70 -236 -96 -371 -100 -17 0 -29 -4 -27 -8 3
-5 1 -8 -4 -8 -15 0 -42 -76 -47 -129 -6 -64 21 -142 64 -188 38 -40 44 -44
132 -89 30 -15 62 -34 72 -42 9 -8 17 -12 17 -9 0 3 33 -12 73 -33 39 -21 104
-55 142 -75 39 -21 111 -59 160 -85 50 -26 140 -73 200 -105 61 -32 147 -78
193 -102 46 -24 91 -47 100 -52 9 -4 31 -16 47 -25 17 -9 47 -24 68 -34 20 -9
37 -20 37 -24 0 -5 8 -8 19 -8 10 0 24 -7 31 -15 7 -8 16 -13 20 -10 5 3 11 1
15 -4 6 -11 11 -11 102 -12 123 -2 229 82 261 206 3 11 6 218 6 461 1 357 -2
444 -13 457 -12 16 -47 34 -166 87 -27 13 -88 41 -135 63 -47 22 -87 41 -90
42 -13 4 -65 27 -165 75 -304 144 -316 149 -348 125z"/>
<path d="M12878 13279 c-40 -20 -81 -68 -93 -109 -13 -41 -9 -2708 4 -2755 14
-51 62 -110 109 -132 23 -11 60 -18 97 -18 60 0 80 7 270 90 28 12 61 26 75
30 14 4 48 18 75 30 28 13 101 46 164 74 94 42 281 154 325 195 6 6 44 37 83
69 40 32 78 68 85 80 13 24 14 29 22 212 3 66 6 120 7 120 6 0 3 1057 -3 1061
-4 3 -4 13 1 23 6 10 6 23 1 31 -5 9 -4 20 2 28 7 8 8 16 2 20 -5 4 -10 50
-11 102 -4 208 -9 259 -28 280 -10 11 -24 20 -31 20 -7 0 -14 4 -16 9 -3 9
-94 63 -140 83 -16 7 -28 16 -28 20 0 4 -4 8 -10 8 -5 0 -31 13 -57 28 -26 16
-77 44 -113 64 -101 55 -172 94 -210 114 -19 11 -37 21 -40 24 -3 3 -34 20
-70 38 -36 19 -128 67 -205 107 -155 80 -199 89 -267 54z"/>
<path d="M10650 12531 c-30 -14 -56 -29 -58 -33 -2 -5 -8 -8 -13 -8 -9 0 -46
-18 -249 -120 -69 -35 -127 -64 -130 -65 -3 0 -25 -12 -50 -25 -148 -77 -590
-296 -590 -292 0 3 -8 -2 -17 -10 -10 -8 -85 -48 -168 -89 -82 -40 -152 -77
-153 -81 -2 -5 -8 -5 -14 -2 -6 4 -13 2 -17 -4 -3 -6 -33 -23 -66 -39 -33 -16
-280 -139 -550 -275 -269 -135 -494 -246 -499 -246 -5 0 -12 -4 -15 -9 -3 -4
-154 -82 -336 -172 -181 -91 -331 -168 -333 -173 -2 -4 -9 -8 -15 -8 -15 0
-720 -352 -728 -363 -3 -5 -12 -9 -20 -11 -15 -3 -390 -187 -399 -196 -8 -9
-200 -100 -209 -100 -5 0 -11 -4 -13 -8 -3 -9 -288 -151 -302 -150 -5 0 -12
-4 -15 -9 -3 -4 -173 -91 -378 -193 -204 -102 -372 -187 -372 -190 -1 -3 56
-41 124 -85 69 -44 131 -84 138 -90 26 -21 106 -75 111 -75 8 0 101 -64 104
-72 2 -5 8 -8 13 -8 4 0 90 -54 190 -120 100 -66 186 -120 191 -120 4 0 8 -4
8 -10 0 -5 5 -10 11 -10 6 0 24 -9 40 -20 23 -17 167 -82 177 -80 1 0 3 0 5
-1 1 0 11 -2 22 -4 11 -2 34 -6 50 -10 63 -14 220 -8 285 10 8 2 26 6 40 9 40
7 84 27 497 232 216 107 396 194 399 194 4 -1 10 2 13 7 5 7 256 135 271 138
15 4 246 121 251 128 3 5 12 10 20 11 22 4 133 59 140 69 3 5 9 8 13 8 11 -2
260 123 268 134 4 5 8 7 8 3 0 -3 92 40 205 97 113 56 205 100 205 96 0 -3 4
-1 8 4 8 13 284 150 295 147 4 -1 7 2 7 6 0 5 18 15 40 22 22 7 45 19 51 27 6
7 15 13 20 13 5 0 309 149 676 332 368 183 670 333 673 333 3 1 318 157 701
348 383 191 701 347 707 347 7 0 12 5 12 12 0 6 3 8 6 5 4 -4 19 2 34 13 16
11 32 20 37 20 20 0 51 45 47 69 -6 34 -29 58 -84 85 -25 13 -70 37 -100 53
-30 17 -86 47 -125 68 -38 21 -95 52 -125 68 -112 62 -278 151 -380 205 -58
30 -108 60 -112 66 -4 6 -8 7 -8 2 0 -5 -6 -4 -12 2 -7 6 -44 27 -83 47 -38
21 -90 49 -115 62 -25 14 -81 44 -125 68 l-80 43 -55 -27z"/>
<path d="M14348 12413 c-2 -5 -3 -269 -3 -588 2 -512 4 -587 19 -637 9 -32 17
-61 18 -65 0 -5 12 -25 24 -45 13 -21 24 -40 24 -43 0 -14 77 -94 125 -130 44
-33 307 -170 990 -514 72 -36 132 -69 133 -73 2 -5 9 -8 16 -8 6 0 38 -14 71
-31 33 -17 119 -61 190 -97 72 -36 132 -70 133 -74 2 -4 10 -8 17 -8 12 0 75
-30 115 -55 8 -5 21 -10 29 -12 8 -1 17 -5 20 -10 3 -4 155 -82 336 -173 182
-91 332 -167 335 -170 3 -3 90 -47 193 -99 103 -52 190 -98 193 -103 3 -4 14
-8 24 -8 10 0 20 -3 22 -7 2 -5 107 -60 233 -123 127 -63 232 -118 233 -122 2
-5 12 -8 22 -8 10 0 20 -3 22 -7 2 -5 71 -42 153 -83 83 -40 152 -77 155 -80
7 -8 125 -57 170 -71 59 -18 101 -23 190 -22 128 1 204 19 305 71 98 51 111
63 570 538 94 96 171 179 172 182 2 4 -39 27 -90 52 -50 25 -94 47 -97 50 -3
3 -124 66 -270 139 -146 74 -267 137 -270 140 -3 3 -14 8 -25 9 -11 2 -22 7
-25 11 -3 3 -79 44 -170 90 -91 46 -180 92 -197 103 -18 11 -33 16 -33 13 0
-4 -6 -3 -13 3 -14 12 -125 69 -517 268 -129 65 -237 121 -240 124 -10 10
-156 80 -167 80 -6 0 -13 3 -15 8 -1 4 -102 57 -223 117 -121 61 -222 112
-225 115 -3 3 -84 45 -180 93 -96 49 -196 100 -222 113 -27 13 -51 24 -54 23
-4 0 -10 3 -13 8 -3 4 -28 19 -56 32 -27 14 -53 29 -57 35 -4 6 -8 8 -8 4 0
-3 -46 17 -102 46 -641 329 -881 450 -887 447 -2 -2 -7 2 -10 7 -3 5 -76 44
-161 87 -85 42 -159 81 -164 86 -6 5 -18 9 -28 9 -10 0 -18 3 -18 8 0 4 -25
18 -55 32 -30 14 -55 29 -55 34 0 5 -3 7 -6 4 -5 -6 -166 73 -191 94 -7 6 -13
7 -13 3 0 -4 -6 -3 -12 3 -12 9 -367 192 -374 192 -1 0 -4 -3 -6 -7z"/>
<path d="M5 12380 c-1 -3 9 -30 22 -60 14 -30 29 -65 34 -77 5 -13 13 -33 19
-45 48 -114 100 -244 100 -251 -1 -4 6 -20 13 -35 8 -15 19 -38 25 -52 6 -14
24 -55 41 -92 16 -37 27 -69 23 -72 -3 -3 0 -6 6 -6 7 0 11 -3 10 -7 -2 -7 46
-129 101 -258 5 -11 24 -56 42 -100 60 -145 131 -234 240 -302 34 -21 65 -38
68 -38 3 -1 17 -7 29 -14 13 -7 26 -10 29 -7 3 3 15 0 26 -6 12 -6 45 -12 75
-13 29 -2 56 -5 59 -8 3 -3 15 -2 28 3 13 5 25 6 28 3 5 -4 200 -7 223 -2 5 1
14 1 19 0 14 -3 209 -3 221 0 5 1 14 1 19 0 14 -2 290 -2 301 0 5 1 14 1 19 0
15 -3 528 -3 540 -1 6 1 15 2 20 1 14 -3 209 -3 221 0 5 1 14 1 19 0 14 -3
209 -3 221 0 5 1 14 1 19 0 12 -3 529 -3 541 0 5 1 14 1 19 0 14 -2 290 -2
301 0 5 1 14 1 19 0 14 -3 209 -3 221 0 5 1 14 1 19 0 14 -3 209 -3 221 0 5 1
14 1 19 0 14 -3 209 -3 221 0 5 1 14 1 19 -1 13 -2 128 -2 140 0 6 1 15 2 20
1 14 -3 209 -3 221 0 5 1 14 1 19 0 14 -3 209 -3 221 0 5 1 14 1 19 -1 13 -2
128 -2 140 0 6 1 15 2 20 1 14 -3 209 -3 221 0 5 1 14 1 19 0 14 -3 209 -3
221 0 5 1 14 1 19 -1 13 -2 128 -2 140 0 6 1 15 2 20 1 14 -3 209 -3 221 0 5
1 14 1 19 0 14 -3 209 -3 221 0 5 1 14 1 19 0 14 -3 209 -3 221 0 5 1 14 0 19
-1 27 -5 200 4 276 15 90 13 269 64 269 77 0 5 4 7 8 4 4 -2 48 15 97 40 50
24 95 44 102 44 6 0 13 4 15 8 3 9 65 41 588 304 124 62 227 115 230 118 3 3
34 19 69 35 36 17 80 40 98 52 18 12 33 20 33 18 0 -3 46 19 103 49 56 29 237
122 402 206 165 84 306 157 313 162 6 6 12 7 12 3 0 -4 6 -2 14 4 7 6 107 59
222 117 115 58 212 111 216 118 4 6 8 8 8 3 0 -6 140 59 140 66 0 5 -9832 3
-9835 -3z"/>
<path d="M14950 12385 c0 -2 60 -33 133 -70 72 -37 183 -94 245 -126 61 -33
112 -56 112 -52 0 5 4 3 8 -3 4 -6 75 -45 157 -87 254 -128 280 -142 287 -152
4 -5 8 -7 8 -2 0 4 28 -8 63 -27 34 -18 211 -109 392 -201 182 -93 404 -206
494 -252 91 -46 170 -88 178 -94 7 -6 13 -8 13 -4 0 5 9 0 21 -11 12 -10 24
-18 28 -18 7 2 49 -19 159 -78 39 -21 72 -35 72 -31 0 5 4 4 8 -2 4 -5 39 -26
77 -45 39 -19 76 -39 84 -44 7 -6 20 -11 29 -13 9 -1 18 -7 20 -12 2 -6 10
-11 18 -11 7 0 28 -8 46 -18 28 -15 106 -44 131 -48 4 -1 9 -3 12 -4 3 -1 10
-4 15 -5 6 -1 11 -3 13 -5 3 -3 49 -10 80 -13 15 -1 27 -4 27 -7 0 -3 30 -6
68 -8 123 -4 5566 -3 5619 2 29 3 57 7 62 10 5 3 26 8 47 12 22 3 45 11 52 16
6 6 12 7 12 2 0 -4 5 -3 12 4 7 7 19 12 28 12 13 0 36 10 115 54 61 34 103 66
169 131 50 49 136 157 136 171 0 4 7 15 16 25 8 9 17 23 18 31 3 11 31 76 66
153 24 52 38 95 32 95 -4 0 -1 4 7 9 8 5 16 17 17 26 2 16 13 42 61 155 8 19
19 44 24 55 4 11 20 49 34 85 14 36 30 74 35 85 44 98 65 155 62 168 -1 4 2 7
8 7 5 0 13 15 18 33 6 17 17 48 26 68 l15 37 -4844 0 c-2665 0 -4845 -1 -4845
-3z"/>
<path d="M12395 11641 c-20 -6 -51 -22 -190 -96 -121 -64 -190 -99 -195 -100
-3 0 -11 -4 -18 -9 -47 -29 -659 -336 -671 -336 -5 0 -11 -3 -13 -7 -4 -10
-241 -128 -250 -125 -5 1 -8 -3 -8 -8 0 -6 -5 -10 -11 -10 -43 0 -137 -94
-146 -145 -19 -104 12 -192 83 -238 42 -27 570 -295 692 -351 113 -51 169 -49
442 19 66 17 301 123 320 145 3 3 35 24 71 48 75 48 97 84 105 171 3 31 7 62
10 69 16 50 24 522 11 657 -18 173 -53 270 -112 309 -24 16 -83 20 -120 7z"/>
<path d="M9548 9005 c-2 -2 -25 -5 -53 -8 -144 -16 -280 -80 -381 -181 -45
-46 -114 -144 -114 -163 0 -7 -5 -13 -12 -13 -6 0 -9 -3 -5 -6 3 -3 -3 -25
-13 -49 -10 -24 -20 -53 -22 -66 -3 -23 -1 -24 77 -25 83 0 175 17 201 38 9 7
28 26 42 41 110 117 134 136 187 156 99 37 217 32 302 -12 38 -20 103 -78 103
-91 0 -17 79 -82 112 -93 18 -5 76 -10 129 -11 l96 -1 -4 37 c-5 54 -48 164
-78 199 -8 10 -28 35 -45 57 -16 21 -30 36 -30 33 0 -3 -10 4 -23 17 -54 54
-203 119 -303 132 -56 7 -162 13 -166 9z"/>
<path d="M8124 8939 c-71 -16 -131 -59 -160 -115 -16 -31 -219 -547 -229 -584
-4 -14 -13 -31 -19 -39 -11 -14 10 -13 104 2 43 7 141 66 187 113 42 42 124
174 108 174 -2 0 3 17 12 38 8 20 20 48 25 62 l10 25 14 -34 c8 -19 12 -36 9
-39 -2 -3 2 -17 10 -31 8 -14 21 -46 29 -71 12 -39 26 -78 55 -155 48 -126 57
-173 31 -166 -8 2 -33 2 -55 1 -22 -1 -49 -2 -60 -1 -11 0 -29 1 -40 0 -28 0
-35 0 -77 3 -20 2 -34 -1 -31 -5 3 -5 -4 -6 -15 -3 -56 18 -188 4 -254 -26
-53 -25 -138 -97 -138 -117 0 -6 -3 -11 -7 -11 -11 0 -30 -44 -25 -58 2 -8 9
-9 21 -2 10 5 21 7 24 3 8 -7 141 -8 153 0 6 3 16 2 23 -3 8 -4 27 -4 42 0 16
5 29 6 29 2 0 -9 194 -7 209 2 6 4 11 4 11 -1 0 -7 131 -9 165 -3 6 1 21 1 35
0 14 -1 41 -3 60 -4 19 0 36 -4 38 -8 57 -140 191 -251 333 -278 91 -17 90
-18 67 43 -11 28 -32 86 -48 127 -15 41 -49 129 -74 195 -26 66 -54 138 -62
160 -9 22 -22 53 -30 68 -8 16 -14 32 -14 37 0 5 -5 21 -12 37 -6 15 -12 30
-13 33 -6 18 -23 60 -44 113 -5 12 -28 72 -51 132 -22 61 -45 119 -50 130 -4
11 -12 29 -16 40 -43 114 -55 133 -114 176 -50 38 -108 51 -166 38z"/>
<path d="M10934 8941 c-2 -3 -14 -6 -26 -8 -31 -5 -105 -54 -117 -78 -6 -11
-15 -27 -21 -35 -8 -12 -25 -51 -35 -80 -5 -15 -19 -49 -31 -77 -8 -17 -14
-33 -14 -36 0 -2 -8 -22 -17 -43 -9 -22 -17 -41 -18 -44 -4 -17 -18 -59 -30
-85 -7 -16 -19 -46 -28 -65 -8 -19 -28 -69 -44 -110 -15 -41 -30 -79 -32 -84
-4 -10 86 0 126 14 66 24 119 58 168 106 56 55 71 83 121 214 25 65 34 80 39
65 7 -20 43 -120 76 -210 75 -208 91 -256 87 -260 -9 -9 -68 -12 -73 -4 -3 4
-18 4 -34 -1 -16 -4 -32 -6 -35 -3 -6 7 -75 10 -71 3 2 -3 -19 -5 -46 -5 -27
0 -49 3 -49 6 0 4 -15 3 -34 -1 -19 -4 -40 -4 -47 1 -7 4 -17 5 -22 2 -4 -3
-26 -6 -47 -8 -105 -9 -236 -108 -264 -200 -5 -19 -2 -20 85 -18 50 1 97 4
105 7 8 3 14 2 14 -2 0 -9 193 -7 209 2 6 4 11 4 11 -1 0 -9 152 -9 167 0 5 3
15 2 22 -3 8 -4 27 -4 42 0 16 5 29 6 29 2 0 -4 29 -5 65 -4 59 3 65 2 65 -16
0 -11 3 -22 8 -24 4 -1 15 -19 25 -39 56 -109 201 -203 336 -216 46 -4 54 -3
45 8 -6 8 -17 34 -24 59 -7 25 -17 50 -21 55 -3 6 -10 21 -14 35 -4 14 -13 39
-21 55 -7 17 -31 77 -53 135 -37 99 -104 272 -156 405 -13 33 -47 121 -75 195
-29 74 -58 149 -65 165 -7 17 -21 52 -30 78 -24 63 -100 132 -159 142 -55 10
-86 12 -92 6z"/>
<path d="M11923 8939 c-106 -22 -188 -116 -196 -224 -2 -19 5 -20 293 -21 323
-2 355 -4 423 -34 141 -62 201 -183 201 -400 -1 -124 -7 -160 -40 -229 -31
-65 -90 -124 -154 -154 -43 -20 -63 -22 -380 -25 -221 -2 -337 -7 -341 -14 -8
-12 7 -71 28 -112 19 -37 48 -65 98 -96 40 -25 43 -25 295 -27 140 -1 280 2
310 8 163 30 294 113 377 237 36 56 80 152 89 195 2 12 6 33 9 47 3 14 8 36
11 50 2 14 5 72 5 130 2 180 -32 308 -114 434 -29 46 -152 156 -174 156 -7 0
-13 3 -13 8 0 16 -190 70 -243 68 -20 0 -37 1 -37 4 0 7 -413 6 -447 -1z"/>
<path d="M13209 8935 c0 -5 -1 -108 -2 -228 -2 -246 -6 -235 73 -230 57 3 67
5 113 27 40 20 100 84 91 98 -3 4 -1 8 4 8 5 0 12 18 16 40 3 22 10 41 14 41
4 1 126 2 272 3 252 2 267 4 308 25 62 32 98 70 125 132 24 55 25 88 4 90 -7
0 -20 2 -29 4 -10 2 -18 -1 -18 -6 0 -4 -7 -6 -15 -3 -28 11 -955 10 -956 -1z"/>
<path d="M14848 8945 c-1 -1 -25 -6 -52 -9 -145 -20 -279 -151 -312 -306 -14
-63 -11 -85 11 -86 129 -4 257 -75 322 -177 19 -30 62 -132 77 -182 2 -5 6
-18 10 -27 4 -9 9 -22 10 -30 2 -7 9 -26 15 -43 7 -16 14 -34 15 -40 2 -5 7
-21 13 -35 5 -14 41 -112 79 -218 l69 -193 119 3 119 3 19 55 c10 30 21 62 25
70 3 8 7 18 8 23 2 4 4 9 5 12 1 3 3 8 5 13 1 4 4 14 7 22 47 127 71 197 71
207 0 7 4 13 7 13 4 0 10 12 13 28 3 15 11 41 18 57 7 17 13 35 15 40 1 6 21
62 44 125 23 63 51 142 63 175 11 33 24 61 28 63 4 2 5 10 2 18 -3 8 -1 14 3
14 5 0 9 -161 10 -358 0 -347 1 -358 23 -408 38 -87 124 -155 214 -168 l47 -7
0 278 c2 668 1 686 -14 748 -22 83 -89 181 -167 241 -30 23 -129 64 -165 69
-22 2 -48 7 -60 9 -19 4 -24 -6 -49 -82 -16 -48 -33 -93 -38 -99 -5 -7 -7 -13
-4 -13 2 0 -9 -37 -25 -82 -16 -46 -31 -90 -33 -98 -2 -8 -4 -15 -5 -15 -1 0
-3 -7 -5 -15 -4 -22 -35 -112 -42 -124 -4 -6 -8 -17 -9 -26 -1 -13 -56 -181
-71 -220 -3 -8 -7 -19 -8 -25 -9 -37 -38 -115 -44 -115 -6 0 -81 205 -83 228
-1 6 -4 12 -8 12 -3 0 -7 10 -7 22 -1 13 -6 32 -12 43 -9 19 -20 50 -21 60 0
3 -9 25 -20 50 -11 25 -20 47 -20 50 -1 9 -30 93 -112 324 -40 113 -46 124
-70 127 -14 1 -28 1 -30 -1z"/>
<path d="M16067 8942 c-16 -3 -16 -6 3 -32 11 -15 20 -33 20 -39 0 -6 5 -11
10 -11 6 0 10 -4 10 -9 0 -5 14 -31 32 -58 l32 -49 168 0 c92 0 168 4 168 9 0
20 -120 124 -171 149 -67 33 -205 53 -272 40z"/>
<path d="M17240 8938 c0 -3 -8 -4 -18 -1 -51 13 -210 -69 -261 -135 -24 -30
-105 -156 -142 -218 -65 -113 -91 -154 -99 -159 -5 -3 -25 22 -45 55 -65 107
-142 169 -230 186 -21 4 -80 8 -131 8 -104 2 -102 5 -49 -79 104 -164 185
-297 185 -306 0 -5 5 -9 10 -9 6 0 10 -6 10 -14 0 -8 4 -16 8 -18 18 -7 81
-135 77 -156 -2 -12 1 -22 6 -22 6 0 7 -5 3 -11 -9 -14 -11 -189 -2 -189 4 0
3 -13 -2 -30 -5 -18 -5 -32 1 -36 6 -3 6 -11 2 -17 -5 -7 -7 -41 -7 -77 3
-121 -1 -111 45 -105 102 13 190 80 234 176 25 56 27 73 29 198 1 87 7 144 15
159 7 13 70 116 142 229 71 113 129 208 129 210 0 3 10 19 23 36 12 17 27 39
32 49 6 10 43 70 83 134 39 64 72 120 72 125 0 5 5 9 11 9 5 0 8 4 5 9 -7 10
-25 9 -43 -2 -7 -5 -13 -5 -13 0 0 4 -18 8 -40 8 -22 0 -40 -3 -40 -7z"/>
<path d="M11755 8622 l-30 -3 0 -349 c0 -193 2 -350 5 -351 33 -6 140 -2 140
5 0 6 5 5 11 -1 7 -7 21 -8 40 -3 16 5 29 6 29 2 0 -4 18 -7 41 -7 l40 0 -3
240 c-3 228 -4 242 -27 288 -40 82 -138 167 -193 167 -9 0 -18 3 -20 8 -1 4
-17 6 -33 4z"/>
<path d="M14478 8464 c-4 -8 -3 -833 1 -858 2 -13 78 2 123 25 83 42 142 123
154 209 8 58 7 355 0 398 -16 86 -73 160 -153 202 -47 24 -118 37 -125 24z"/>
<path d="M8924 8405 c-5 -21 -8 -101 -5 -152 1 -23 2 -23 156 -23 l154 0 -5
51 c-11 116 -46 142 -190 144 -100 2 -105 1 -110 -20z"/>
<path d="M13370 8397 c-44 -11 -112 -63 -134 -101 -10 -17 -20 -51 -23 -76
l-5 -45 463 2 c255 1 475 2 489 2 l25 1 -2 107 c-1 60 -2 111 -2 114 -2 10
-773 6 -811 -4z"/>
<path d="M8958 8162 c-16 -2 -28 -6 -28 -10 0 -19 42 -158 51 -166 5 -6 9 -18
9 -28 0 -10 5 -18 10 -18 6 0 10 -5 10 -11 0 -28 84 -129 161 -194 38 -32 138
-81 214 -106 103 -33 331 -33 418 0 15 6 27 9 27 6 0 -2 33 12 73 33 98 50
192 143 240 239 35 69 50 120 63 204 l5 37 -103 -3 c-57 -1 -104 -3 -105 -5
-2 -1 -8 -3 -13 -4 -26 -3 -82 -62 -110 -115 -66 -123 -146 -172 -285 -173
-99 -1 -181 31 -246 96 -46 46 -87 115 -95 163 -3 16 -9 30 -15 31 -5 2 -6 8
-3 14 4 7 -6 9 -30 6 -20 -2 -36 -1 -36 2 0 3 -25 3 -56 0 -30 -3 -57 -3 -60
2 -3 4 -15 3 -28 -2 -13 -5 -27 -5 -32 -1 -5 3 -21 5 -36 3z"/>
<path d="M13208 8091 c-2 -9 -3 -122 -2 -251 l0 -235 526 -3 527 -2 -5 33
c-10 87 -60 152 -143 191 -54 24 -58 25 -325 26 -269 1 -292 3 -280 35 7 17
-29 95 -60 132 -30 35 -83 71 -112 76 -10 1 -24 6 -30 9 -5 4 -29 7 -51 6 -30
0 -42 -5 -45 -17z"/>
<path d="M7534 7733 c-21 -54 -41 -103 -46 -109 -13 -18 2 -24 56 -24 90 0
178 37 250 103 14 13 26 29 26 36 0 6 4 11 8 11 7 0 42 62 42 75 0 2 -67 4
-149 4 l-149 2 -38 -98z"/>
<path d="M10370 7810 c-6 -11 -8 -20 -4 -20 3 0 2 -6 -4 -13 -6 -7 -20 -39
-32 -72 -11 -33 -25 -68 -31 -77 -14 -27 -13 -28 49 -28 140 0 273 87 324 211
6 16 -7 17 -142 18 -139 1 -150 -1 -160 -19z"/>
</g>
</svg>
